<svg viewBox="63.7331 101.2253 332.8135 336.0767" width="4951.451558528157" height="5000" xmlns="http://www.w3.org/2000/svg" xmlns:xlink="http://www.w3.org/1999/xlink" preserveAspectRatio="none"><defs></defs><style>.a-EddsY1Dv0filter-floo {flood-color:#2B2B2B;flood-opacity:0.5;}.aD6z1nYkhcolor {fill:#000000;fill-opacity:1;}.aD6z1nYkhstrokeColor-str {stroke:#3F3F3F;stroke-opacity:1;}</style><defs>
      <filter
        x="221.6556"
        y="247.6316"
        width="174.891"
        height="91.1754"
        id="-EddsY1Dv"
        filterUnits="userSpaceOnUse"
        primitiveUnits="userSpaceOnUse"
        color-interpolation-filters="sRGB">
        <feMerge><feMergeNode in="SourceGraphic" /></feMerge>
      </filter></defs><g opacity="0.2" transform="rotate(0 87.8653 101.2253)">
<svg width="295.5" height="295.5" x="87.8653" y="101.2253" version="1.1" preserveAspectRatio="none" viewBox="23 23 154 154">
  <g transform="matrix(1 0 0 1 0 0)" ><g><path d="M174.5 100c0 41.145-33.355 74.5-74.5 74.5S25.5 141.145 25.5 100 58.855 25.5 100 25.5s74.5 33.355 74.5 74.5z" data-color="1" style="fill:#000000;fill-opacity:1;"></path><path d="M100 28c39.7 0 72 32.3 72 72s-32.3 72-72 72-72-32.3-72-72 32.3-72 72-72m0-5c-42.5 0-77 34.5-77 77s34.5 77 77 77 77-34.5 77-77-34.5-77-77-77z" data-color="2" style="fill:#3F3F3F;fill-opacity:1;"></path></g></g>
</svg>
</g><g opacity="0.2" transform="rotate(0 221.6556 174.3438)">
<svg width="149.2631" height="149.263" x="221.6556" y="174.3438" version="1.1" preserveAspectRatio="none" viewBox="20 20 160 160">
  <g transform="matrix(1 0 0 1 0 0)" ><g><path d="M179.657 100c0 43.993-35.664 79.657-79.657 79.657-43.993 0-79.657-35.664-79.657-79.657 0-43.993 35.664-79.657 79.657-79.657 43.993 0 79.657 35.664 79.657 79.657z" data-color="1" style="fill:#000000;fill-opacity:1;"></path><path d="M100 180c-44.112 0-80-35.888-80-80s35.888-80 80-80 80 35.888 80 80-35.888 80-80 80zm0-159.313c-43.734 0-79.313 35.58-79.313 79.313s35.58 79.313 79.313 79.313 79.313-35.58 79.313-79.313S143.734 20.687 100 20.687z" data-color="2" style="fill:#3F3F3F;fill-opacity:1;"></path></g></g>
</svg>
</g><g opacity="1" transform="rotate(0 87.8653 407.7253)">
<svg width="302.9102" height="29.5767" x="87.8653" y="407.7253" version="1.1" preserveAspectRatio="none" viewBox="3.12 -27.84 288.4 28.16">
  <g transform="matrix(1 0 0 1 0 0)" class="aD6z1nYkhcolor"><path id="id-D6z1nYkh13" d="M28.40 0L24.40 0L24.40-21L24.24-21L17.32 0L14.08 0L7.20-21L7.04-21L7.04 0L3.12 0L3.12-27.52L8.96-27.52L15.68-6.92L15.92-6.92L22.64-27.52L28.40-27.52L28.40 0Z M54.56 0L50.32 0L48.24-6.96L38.48-6.96L36.44 0L32.28 0L40.68-27.52L46.16-27.52L54.56 0ZM47.20-10.48L43.44-23.32L43.24-23.32L39.48-10.48L47.20-10.48Z M77.36 0L73.36 0L62.56-19.68L62.40-19.68L62.40 0L58.40 0L58.40-27.52L62.72-27.52L73.24-8.44L73.40-8.44L73.40-27.52L77.36-27.52L77.36 0Z M97.04-11.68L92.52-11.68L92.52-15.12L101-15.12L101-0.48Q99.32-0.12 97.12 0.10Q94.92 0.32 93.20 0.32L93.20 0.32Q88.76 0.32 86.62-0.78Q84.48-1.88 83.68-4.78Q82.88-7.68 82.88-13.76L82.88-13.76Q82.88-19.72 83.70-22.64Q84.52-25.56 86.68-26.70Q88.84-27.84 93.24-27.84L93.24-27.84Q95.16-27.84 97.38-27.58Q99.60-27.32 100.92-27L100.92-27L100.92-23.72Q99.56-23.92 97.78-24.10Q96-24.28 94.88-24.28L94.88-24.28Q91.08-24.28 89.60-23.76Q88.12-23.24 87.56-21.14Q87-19.04 87-13.76L87-13.76Q87-8.92 87.42-6.78Q87.84-4.64 89.12-3.88Q90.40-3.12 93.28-3.12L93.28-3.12Q95.28-3.12 97.04-3.40L97.04-3.40L97.04-11.68Z M125.48 0L121.12 0L117.40-10.60L117.16-10.60L111-10.60L111 0L106.88 0L106.88-27.52L117.64-27.52Q120.80-27.52 122.40-26.48Q124-25.44 124.50-23.66Q125-21.88 125-19.04L125-19.04Q125-16.12 124.30-14.10Q123.60-12.08 121.40-11.24L121.40-11.24L125.48 0ZM116.20-14.12Q118.32-14.12 119.30-14.60Q120.28-15.08 120.58-16.08Q120.88-17.08 120.88-19.04L120.88-19.04Q120.88-21.04 120.60-22.02Q120.32-23 119.36-23.48Q118.40-23.96 116.32-23.96L116.32-23.96L111-23.96L111-14.12L116.20-14.12Z M139.60 0.32Q134.84 0.32 132.80-0.80Q130.76-1.92 130.22-4.64Q129.68-7.36 129.68-13.76L129.68-13.76Q129.68-20.16 130.22-22.88Q130.76-25.60 132.80-26.72Q134.84-27.84 139.60-27.84L139.60-27.84Q144.40-27.84 146.44-26.72Q148.48-25.60 149.04-22.88Q149.60-20.16 149.60-13.76L149.60-13.76Q149.60-7.36 149.04-4.64Q148.48-1.92 146.44-0.80Q144.40 0.32 139.60 0.32L139.60 0.32ZM139.60-3.24Q142.60-3.24 143.68-3.76Q144.76-4.28 145.10-6.30Q145.44-8.32 145.44-13.76L145.44-13.76Q145.44-19.20 145.10-21.22Q144.76-23.24 143.68-23.76Q142.60-24.28 139.60-24.28L139.60-24.28Q136.60-24.28 135.54-23.76Q134.48-23.24 134.14-21.22Q133.80-19.20 133.80-13.76L133.80-13.76Q133.80-8.32 134.14-6.30Q134.48-4.28 135.54-3.76Q136.60-3.24 139.60-3.24L139.60-3.24Z M165.64 0L160.16 0L152.20-27.52L156.44-27.52L162.84-4.76L163.08-4.76L169.44-27.52L173.60-27.52L165.64 0Z M193.24 0L177.40 0L177.40-27.52L193.24-27.52L193.24-23.96L181.52-23.96L181.52-15.68L191.64-15.68L191.64-12.12L181.52-12.12L181.52-3.56L193.24-3.56L193.24 0Z M214.92 0.32Q210.60 0.32 206.48-0.24L206.48-0.24L206.48-3.68Q210.80-3.24 213.68-3.24L213.68-3.24Q215.52-3.24 216.58-3.44Q217.64-3.64 218.28-4.12L218.28-4.12Q218.84-4.60 219.02-5.42Q219.20-6.24 219.20-7.68L219.20-7.68Q219.20-9.48 219.02-10.22Q218.84-10.96 218.24-11.30Q217.64-11.64 216.20-11.84L216.20-11.84L210.84-12.56Q208.72-12.84 207.64-13.76Q206.56-14.68 206.18-16.16Q205.80-17.64 205.80-19.96L205.80-19.96Q205.80-23.12 206.82-24.84Q207.84-26.56 209.74-27.20Q211.64-27.84 214.64-27.84L214.64-27.84Q216.68-27.84 218.68-27.66Q220.68-27.48 222.12-27.16L222.12-27.16L222.12-23.80Q219.32-24.28 215.56-24.28L215.56-24.28Q213.64-24.28 212.56-24.08Q211.48-23.88 210.88-23.40L210.88-23.40Q210.28-22.92 210.10-22.18Q209.92-21.44 209.92-20.12L209.92-20.12Q209.92-18.56 210.10-17.84Q210.28-17.12 210.80-16.82Q211.32-16.52 212.56-16.36L212.56-16.36L218-15.64Q219.84-15.40 220.96-14.82Q222.08-14.24 222.68-12.80L222.68-12.80Q223.32-11.28 223.32-8.08L223.32-8.08Q223.32-4.64 222.38-2.82Q221.44-1 219.66-0.34Q217.88 0.32 214.92 0.32L214.92 0.32Z M228.48 0L228.48-27.52L238.88-27.52Q242-27.52 243.62-26.44Q245.24-25.36 245.76-23.50Q246.28-21.64 246.28-18.64L246.28-18.64Q246.28-15.76 245.76-13.90Q245.24-12.04 243.62-10.92Q242-9.80 238.84-9.80L238.84-9.80L232.60-9.80L232.60 0L228.48 0ZM232.60-13.32L237.48-13.32Q239.60-13.32 240.60-13.82Q241.60-14.32 241.88-15.38Q242.16-16.44 242.16-18.64L242.16-18.64Q242.16-20.84 241.88-21.90Q241.60-22.96 240.62-23.46Q239.64-23.96 237.52-23.96L237.52-23.96L232.60-23.96L232.60-13.32Z M260.12 0.32Q255.36 0.32 253.32-0.80Q251.28-1.92 250.74-4.64Q250.20-7.36 250.20-13.76L250.20-13.76Q250.20-20.16 250.74-22.88Q251.28-25.60 253.32-26.72Q255.36-27.84 260.12-27.84L260.12-27.84Q264.92-27.84 266.96-26.72Q269-25.60 269.56-22.88Q270.12-20.16 270.12-13.76L270.12-13.76Q270.12-7.36 269.56-4.64Q269-1.92 266.96-0.80Q264.92 0.32 260.12 0.32L260.12 0.32ZM260.12-3.24Q263.12-3.24 264.20-3.76Q265.28-4.28 265.62-6.30Q265.96-8.32 265.96-13.76L265.96-13.76Q265.96-19.20 265.62-21.22Q265.28-23.24 264.20-23.76Q263.12-24.28 260.12-24.28L260.12-24.28Q257.12-24.28 256.06-23.76Q255.00-23.24 254.66-21.22Q254.32-19.20 254.32-13.76L254.32-13.76Q254.32-8.32 254.66-6.30Q255.00-4.28 256.06-3.76Q257.12-3.24 260.12-3.24L260.12-3.24Z M284.40 0L280.24 0L280.24-23.84L273.12-23.84L273.12-27.52L291.52-27.52L291.52-23.84L284.40-23.84L284.40 0Z"/></g>
</svg>
</g><g opacity="0.2" transform="rotate(180 396.5466 338.807)">
<svg width="174.891" height="91.1754" x="396.5466" y="338.807" version="1.1" preserveAspectRatio="none" viewBox="5.007277011871338 24.999296188354492 89.99272155761719 46.915618896484375">
  <g transform="matrix(1 0 0 -1 0 96.91421127319336)" style="fill:#000000;fill-opacity:1;"><path d="M93.979,45.958c-0.354,0.125-3.249,0.896-6.791,1.396s-3.917,0.771-12.167,1.458  c-4.445,0.371-7.912,0.577-11.493,0.719l0.86-0.861l0.383,0.159c0.488,0.21,1.054-0.015,1.265-0.503  c0.163-0.381,0.056-0.804-0.229-1.073l2.034-2.034h0.293c0.531,0,0.962-0.431,0.962-0.962c0-0.086-0.027-0.164-0.049-0.244  l7.054-7.054c0.532-0.136,1.739-0.509,3.464-1.435c2.366-1.269,4.474-3.745,4.774-4.439c0.303-0.693-0.084-1.381-0.704-1.811  c-0.621-0.431-1.834-0.95-3.137-0.163c-1.303,0.789-2.6,2.51-3.293,4.042c-0.501,1.109-1.166,2.521-1.465,3.247l-7.076,7.076  c-0.154-0.105-0.33-0.181-0.53-0.181h-5.497c-0.266-0.529-0.651-0.987-1.138-1.316c0.763-0.582,1.264-1.492,1.264-2.526  c0-1.76-1.428-3.188-3.188-3.188s-3.188,1.427-3.188,3.188c0,1.034,0.501,1.944,1.264,2.526c-0.913,0.618-1.514,1.664-1.514,2.849  v1.651c-0.608-0.84-1.168-1.276-1.168-1.276v4.574c-0.512,0.012-1.035,0.023-1.573,0.035c-7.046,0.155-16.144-0.533-22.043-1.058  l0.987-0.987l0.26,0.124c0.488,0.21,1.054-0.015,1.264-0.503c0.148-0.344,0.071-0.721-0.154-0.991l2.194-2.194h0.843  c0.531,0,0.962-0.431,0.962-0.962c0-0.234-0.094-0.442-0.234-0.609l8.059-8.059c0.799-0.33,2.353-1.061,3.571-1.611  c1.685-0.763,3.579-2.19,4.445-3.623c0.867-1.433,0.296-2.768-0.178-3.45c-0.474-0.682-1.23-1.107-1.992-0.774  c-0.764,0.331-3.487,2.649-4.883,5.251c-1.019,1.896-1.429,3.225-1.577,3.81l-8.115,8.115c-0.021-0.001-0.038-0.012-0.059-0.012  h-6.497c-0.265-0.529-0.651-0.987-1.138-1.316c0.763-0.583,1.264-1.492,1.264-2.526c0-1.76-1.427-3.188-3.188-3.188  S24,36.677,24,38.438c0,1.034,0.5,1.944,1.264,2.526c-0.913,0.618-1.514,1.663-1.514,2.849v1.259  c-0.47-0.567-0.849-0.869-0.849-0.869v3.908c-4.169-0.178-8.384-0.151-10.151,0.139c-2.542,0.417-5.926,1.328-7.479,2.047  c-0.365,0.281-0.338,0.818,0,0.87c0.304,0.047,1.083,0.396,1.271,0.604s1,2.521,3.271,3.188c1.879,0.551,7.608,0.945,13.224,1.101  l-6.776,6.775c-0.584,0.149-1.913,0.56-3.81,1.578c-2.602,1.396-4.92,4.119-5.251,4.882c-0.333,0.763,0.092,1.52,0.774,1.992  c0.683,0.474,2.017,1.045,3.45,0.179c1.433-0.867,2.86-2.761,3.622-4.445c0.551-1.22,1.283-2.772,1.611-3.571l7.365-7.364  c0.838,0.019,1.668,0.032,2.478,0.04c6.521,0.062,21.479,0.021,28.583,0.021c0.298,0,0.606-0.001,0.912-0.002l-6.51,6.51  c-0.727,0.3-2.139,0.964-3.247,1.465c-1.531,0.693-3.254,1.99-4.042,3.293c-0.789,1.303-0.269,2.517,0.162,3.137  s1.119,1.007,1.812,0.704c0.694-0.301,3.171-2.408,4.439-4.774c0.926-1.724,1.299-2.932,1.434-3.464l6.874-6.874  c0.81-0.004,1.635-0.01,2.473-0.019c0.062,0.003,0.121,0.019,0.185,0.019c0.079,0,0.152-0.018,0.229-0.023  c6.104-0.065,12.577-0.222,15.259-0.222c3.396,0,10.122-0.324,14.208-3.166C92.176,50.709,95,47.708,95,46.125  C95,45.676,94.332,45.833,93.979,45.958z M30.625,48.471v-1.523l1.031,0.493L30.625,48.471z M33.097,46l-2.472-1.183v-0.613h4.268  L33.097,46z M63.012,49.128v-1.029l0.728,0.302L63.012,49.128z M65.211,46.929l-2.199-0.914v-0.797h3.909L65.211,46.929z"></path></g>
</svg>
</g><g opacity="0.2" transform="rotate(0 63.7331 149.5441)">
<svg width="179.7146" height="178.1404" x="63.7331" y="149.5441" version="1.1" preserveAspectRatio="none" viewBox="-0.009990692138671877 -0.009990692138671877 304.1200256347656 301.45654296875">
  <g transform="matrix(1 0 0 1 0 0)" style="fill:#000000;fill-opacity:1;"><defs></defs><g><path class="fil0" d="M40.85 48.43c15.52,-3.94 30.89,7.55 31.51,23.55 -5.86,-4.38 -12.13,-8.22 -16.97,-10.15 2.63,3.34 6.74,7.22 11.34,10.92 -13.41,0.31 -25.34,-10.26 -25.88,-24.32zm-19.64 26.43c10.69,-11.92 29.86,-10.95 39.28,2 -7.31,-0.37 -14.65,-0.07 -19.74,1.03 4.04,1.31 9.62,2.24 15.5,2.75 -10.96,7.73 -26.76,5.6 -35.04,-5.77zm4.6 29.88c4.96,-15.22 22.89,-22.07 36.74,-14.04 -6.83,2.61 -13.43,5.86 -17.65,8.92 4.22,-0.44 9.71,-1.83 15.29,-3.75 -6.91,11.5 -22.22,15.93 -34.39,8.87zm15.08 28.87c-1.85,-15.91 11.58,-29.62 27.52,-28.11 -5.12,5.23 -9.76,10.93 -12.31,15.47 3.66,-2.16 8.06,-5.72 12.33,-9.79 -1.47,13.33 -13.54,23.76 -27.54,22.43zm35.13 -88.31c15.51,3.98 23.49,21.44 16.35,35.77 -3.04,-6.65 -6.7,-13.02 -10.02,-17.04 0.7,4.19 2.44,9.57 4.71,15.02 -11.92,-6.16 -17.31,-21.16 -11.05,-33.75zm36.96 -3.16c10.89,11.74 8.15,30.74 -5.61,38.93 1.04,-7.24 1.42,-14.58 0.8,-19.76 -1.68,3.91 -3.13,9.37 -4.17,15.19 -6.69,-11.63 -3.11,-27.17 8.98,-34.36zm17.54 25c6.34,14.7 -2.59,31.69 -18.29,34.82 3.4,-6.48 6.2,-13.27 7.35,-18.35 -2.89,3.12 -6.07,7.79 -9,12.92 -2.42,-13.2 6.15,-26.64 19.94,-29.39zm-126.64 49.36c10.69,-11.92 29.86,-10.95 39.28,1.99 -7.31,-0.37 -14.65,-0.07 -19.74,1.03 4.04,1.31 9.62,2.24 15.5,2.74 -10.96,7.73 -26.76,5.6 -35.04,-5.77zm88.61 7.86c15.51,3.98 23.49,21.44 16.35,35.78 -3.04,-6.66 -6.7,-13.03 -10.02,-17.04 0.7,4.19 2.45,9.57 4.71,15.02 -11.92,-6.16 -17.31,-21.16 -11.04,-33.75zm-54.26 65.5c4.96,-15.22 22.89,-22.07 36.74,-14.04 -6.83,2.61 -13.43,5.85 -17.65,8.92 4.22,-0.44 9.7,-1.83 15.29,-3.75 -6.91,11.5 -22.22,15.93 -34.39,8.87zm31.81 17.35c-1.85,-15.91 11.58,-29.62 27.52,-28.1 -5.12,5.22 -9.76,10.93 -12.31,15.47 3.66,-2.16 8.06,-5.72 12.33,-9.79 -1.47,13.33 -13.54,23.76 -27.54,22.43zm-23.66 -61.67c4.96,-15.22 22.89,-22.07 36.74,-14.04 -6.83,2.61 -13.43,5.86 -17.65,8.92 4.22,-0.44 9.71,-1.83 15.29,-3.75 -6.91,11.5 -22.22,15.93 -34.39,8.87zm13.98 16.52c10.69,-11.92 29.86,-10.95 39.28,2 -7.31,-0.37 -14.65,-0.07 -19.74,1.03 4.04,1.31 9.62,2.24 15.5,2.75 -10.96,7.73 -26.76,5.6 -35.04,-5.77zm-60.36 -13.27c4.96,-15.22 22.89,-22.08 36.74,-14.04 -6.84,2.61 -13.43,5.85 -17.65,8.91 4.23,-0.43 9.71,-1.83 15.29,-3.74 -6.91,11.5 -22.22,15.93 -34.39,8.87zm81.68 -131.42c15.51,3.98 23.49,21.44 16.35,35.77 -3.04,-6.65 -6.7,-13.02 -10.02,-17.04 0.7,4.19 2.44,9.57 4.71,15.02 -11.92,-6.16 -17.31,-21.16 -11.05,-33.75zm63.71 -17.38c13.89,7.98 16.91,26.93 6.21,38.84 -1.15,-7.23 -2.98,-14.35 -5.11,-19.1 -0.44,4.22 -0.2,9.88 0.53,15.74 -9.84,-9.12 -11.04,-25.02 -1.63,-35.48zm-39.99 7.32c15.52,-3.94 30.89,7.55 31.5,23.55 -5.86,-4.38 -12.13,-8.22 -16.96,-10.15 2.63,3.34 6.74,7.22 11.34,10.92 -13.41,0.31 -25.34,-10.26 -25.88,-24.32zm19.5 26.7c-1.44,15.95 12.33,29.31 28.22,27.39 -5.25,-5.09 -10.03,-10.68 -12.7,-15.15 3.71,2.06 8.2,5.51 12.57,9.47 -1.81,-13.3 -14.13,-23.4 -28.1,-21.72zm150.38 28.53c-15.52,-3.94 -30.89,7.54 -31.51,23.55 5.86,-4.38 12.13,-8.22 16.97,-10.15 -2.63,3.34 -6.74,7.22 -11.34,10.92 13.41,0.31 25.34,-10.26 25.88,-24.32zm18.21 32.52c-10.69,-11.93 -29.86,-10.95 -39.29,1.99 7.31,-0.37 14.65,-0.07 19.75,1.03 -4.04,1.31 -9.62,2.24 -15.5,2.75 10.96,7.73 26.76,5.6 35.04,-5.77zm-15.59 27.56c-4.96,-15.22 -22.89,-22.08 -36.74,-14.04 6.83,2.61 13.43,5.85 17.65,8.91 -4.23,-0.43 -9.71,-1.83 -15.29,-3.74 6.91,11.5 22.22,15.93 34.39,8.87zm-14.03 26.8c1.85,-15.9 -11.58,-29.62 -27.52,-28.1 5.12,5.23 9.76,10.93 12.31,15.47 -3.66,-2.16 -8.06,-5.72 -12.33,-9.79 1.47,13.33 13.54,23.75 27.54,22.42zm-21.28 -95.61c-15.51,3.98 -23.49,21.44 -16.35,35.77 3.04,-6.65 6.7,-13.03 10.02,-17.04 -0.7,4.19 -2.45,9.57 -4.72,15.02 11.92,-6.16 17.31,-21.16 11.05,-33.75zm-39.81 6.81c-10.88,11.74 -8.15,30.74 5.61,38.93 -1.05,-7.24 -1.42,-14.58 -0.8,-19.76 1.68,3.91 3.12,9.37 4.17,15.18 6.69,-11.63 3.11,-27.16 -8.98,-34.36zm101.32 85.52c-4.96,-15.22 -22.89,-22.07 -36.74,-14.04 6.84,2.61 13.43,5.86 17.65,8.92 -4.23,-0.44 -9.71,-1.83 -15.29,-3.75 6.91,11.5 22.22,15.93 34.39,8.87zm-67.17 -120.25c-15.51,3.98 -23.49,21.44 -16.35,35.77 3.04,-6.65 6.7,-13.03 10.02,-17.04 -0.7,4.19 -2.45,9.57 -4.72,15.02 11.92,-6.16 17.31,-21.16 11.05,-33.75zm-53.49 -22.84c-15.51,3.98 -23.49,21.44 -16.35,35.78 3.04,-6.66 6.7,-13.03 10.02,-17.04 -0.7,4.19 -2.44,9.57 -4.71,15.02 11.92,-6.16 17.31,-21.16 11.05,-33.75zm33.69 11.45c-15.52,-3.94 -30.89,7.55 -31.51,23.55 5.86,-4.38 12.13,-8.22 16.97,-10.15 -2.63,3.34 -6.74,7.22 -11.34,10.92 13.41,0.31 25.34,-10.26 25.88,-24.31zm-21.72 80.84c1.85,-15.91 -11.58,-29.62 -27.52,-28.1 5.12,5.22 9.76,10.93 12.31,15.47 -3.66,-2.16 -8.06,-5.72 -12.33,-9.79 1.48,13.33 13.54,23.76 27.54,22.43zm16.58 -46.72c-10.69,-11.93 -29.85,-10.95 -39.28,1.99 7.3,-0.37 14.65,-0.07 19.74,1.03 -4.04,1.31 -9.62,2.24 -15.5,2.75 10.96,7.73 26.76,5.6 35.04,-5.77zm90.11 127.26c-1,-15.98 -16.65,-27.09 -32.07,-22.77 5.96,4.23 11.54,9.02 14.86,13.04 -3.98,-1.48 -8.94,-4.2 -13.87,-7.44 3.82,12.86 17.54,20.97 31.08,17.17zm-65.95 -5.94c9.59,-12.82 4.87,-31.43 -9.68,-38.13 1.8,7.09 2.94,14.35 2.87,19.56 -2.07,-3.7 -4.09,-8.99 -5.74,-14.66 -5.43,12.27 -0.23,27.34 12.55,33.22zm-72.48 -107.19c-0.85,1.73 -0.89,1.91 -2.33,3.24 -0.12,0.11 -0.7,0.72 -0.61,0.16 0.12,-0.7 1.35,-1.82 0.28,-2.35 -0.93,-0.46 -1.67,-1.16 -2.35,-1.94 -3.34,-4 -2.19,-7.67 -1.71,-12.33 0.85,-8.39 -1.37,3.8 -1.59,4.94 -1.07,5.41 -0.22,6.7 1.09,11.67 0.27,1.02 0.46,1.95 0.61,2.99 0.08,0.58 0.16,1.16 0.2,1.74 0.03,0.39 0.22,0.6 0.57,0.74 0.51,0.21 1.85,0.07 1.99,0.6 0.12,0.44 -0.98,0.81 -1.28,0.94 -0.46,0.19 -1.29,0.45 -1.6,0.83 -0.17,0.2 -0.47,0.83 -0.64,1.11 -0.58,0.97 -1.23,1.77 -2.02,2.57 -0.47,0.47 -0.19,0.6 0.29,0.86 0.3,0.17 0.98,0.52 0.75,0.96 -0.23,0.44 -1.52,0.47 -1.96,0.5 -0.54,0.04 -1.66,0.08 -2.1,0.31 -0.72,0.37 -1.81,1.67 -2.24,2.36 -0.94,1.51 -1.25,3.22 -1.33,4.97 -0.12,2.77 -0.26,5.56 -0.36,8.33 -0.07,1.97 1.78,2.42 0.34,5 -0.78,1.39 -0.62,1.46 -0.69,3 -0.13,3.06 -0.27,6.11 -0.42,9.16 -0.04,0.86 0.28,1.1 0.85,1.67 1.69,1.67 1.35,2.48 -0.28,3.91 -1.04,0.92 -0.87,1.09 -0.93,2.41 -0.11,2.39 -0.21,4.77 -0.31,7.16 -0.03,0.61 0.22,0.89 0.7,1.22 0.86,0.6 1.53,0.68 2.47,1.03 0.86,0.32 0.58,0.55 -0.16,0.54 -0.67,-0 -1.33,-0.1 -2.02,-0.07 -0.24,0.02 -0.72,-0.14 -0.98,-0.2 -0.74,-0.16 -1.51,-0.3 -2.25,-0.44 -2.87,-0.57 -5.68,-1.21 -8.52,-1.88 -1.43,-0.34 -0.6,0.89 -1.18,1.3 -0.47,0.34 -1.24,-0.67 -1.56,-0.97 -0.52,-0.51 -1.35,-1.3 -2.03,-1.54 -0.42,-0.15 -1.02,-0.28 -1.46,-0.4 -3.85,-1.06 -7.67,-2.24 -11.44,-3.56 -5.07,-1.83 -8.72,-4.37 -10.68,-9.56 -0.35,-0.94 -0.41,-2.3 -0.16,-3.27 0.3,-1.14 0.81,-1.72 1.32,-2.75 0.41,-0.83 0.5,-1.13 0.73,-2.02 0.39,-1.45 0.61,-2.17 0.63,-3.73 0.01,-0.45 0.08,-2.02 -0.18,-2.3 -0.31,-0.34 -0.56,0.17 -0.63,0.42 -0.19,0.69 -0.22,1.7 -0.35,2.46 -0.18,1.02 -0.59,1.98 -0.99,2.92 -0.28,0.65 -0.6,1.22 -1.15,1.69 -0.98,0.84 -1.09,-0.55 -1.2,-1.2 -0.04,-0.19 -0.07,-0.38 -0.11,-0.57 -0.47,-2.51 -0.8,-5.02 -0.69,-7.58 0.09,-2.1 0.19,-3.65 0.05,-5.78 -0.17,-2.63 0.04,-5.33 -0.15,-7.84 -0.15,-2.07 -1.43,-1.52 -1.59,-0.4 -0.24,1.6 -0.21,6.41 -0.13,8.11 0.16,3.36 -0.4,6.65 -0.19,9.99 0.04,0.61 0.06,0.97 -0.69,0.73 -0.55,-0.17 -1.49,-0.76 -2.05,-1.06 -0.71,-0.38 -1.04,-0.59 -1.62,-1.15 -0.19,-0.19 -0.7,-0.67 -0.98,-0.46 -0.24,0.18 0.26,0.71 0.41,0.9 0.8,1.05 1.34,1.26 2.3,2.06 0.72,0.61 2.73,2.6 3.01,3.43 0.17,0.52 0.4,3.7 0.45,4.46l0.01 0.09c0.08,1.31 0.18,2.83 -0.18,4.09 -0.19,0.66 0,1.13 0.31,1.71 0.15,0.28 1.09,1.83 0.71,2.02 -0.26,0.13 -0.96,-0.85 -1.14,-1.04 -0.66,-0.74 -1.76,-1.63 -2.66,-2.03 -0.85,-0.38 -1.56,-0.77 -2.35,-1.25 -2.43,-1.47 -5.33,-3.49 -7.52,-5.31 -2.91,-2.48 -5.47,-5.17 -7.28,-8.56 -0.35,-0.66 -0.83,-0.32 -1.22,-0.6 -0.37,-0.26 -0.02,-1.25 0,-1.69 0.02,-0.49 -0.25,-1.1 -0.41,-1.59 -0.09,-0.28 -0.17,-0.56 -0.25,-0.85 -0.19,-0.69 0.09,-1.28 0.42,-1.88 0.95,-1.7 2.29,-3.09 3.63,-4.49 0.72,-0.75 1.33,-1.59 1.98,-2.41 0.67,-0.83 1.39,-1.74 1.74,-2.77 0.06,-0.18 0.51,-1.51 0.51,-1.6 0,-0.33 -0.29,-0.16 -0.43,0.04 -0.31,0.45 -0.55,1.39 -0.87,1.97 -0.51,0.91 -1.88,2.36 -2.63,3.19 -0.63,0.69 -1.58,1.46 -2.32,2.06 -0.5,0.41 -2.03,1.59 -2.61,1.65 -0.52,0.05 -0.52,-0.47 -0.61,-0.88 -0.08,-0.36 -0.15,-0.72 -0.23,-1.08 -0.07,-0.31 -0.16,-1 -0.4,-1.2 -0.36,-0.3 -0.99,-0.2 -1.03,-1.02 -0.04,-0.7 0.38,-1.48 0.15,-2.09 -0.54,-1.38 -1.52,-2.91 -2.46,-4.05 -1.24,-1.53 -2.75,-2.94 -4.18,-4.3 -0.74,-0.7 -1.64,-1.46 -1.99,-2.43 -0.37,-1.02 -2.28,-0.39 0.36,2.79 2.34,2.82 4.88,4.81 5.55,8.78 0.18,1.04 0.48,2.07 0.65,3.19 0.84,5.32 1.35,9.85 3.86,14.75 0.49,0.96 1.41,1.16 1.68,1.63 0.32,0.58 -1.15,0.57 -1.44,0.61 -0.48,0.05 -0.74,0.15 -1.19,0.26 -2.06,0.44 -4.84,-0.53 -6.61,-1.59 -2.63,-1.58 -3.91,-4.53 -5.3,-7.13 -0.3,-0.55 -1.28,-2.35 -2.11,-1.63 -0.08,0.07 -0.4,0.53 -0.1,0.18 0.81,-0.94 2.11,2.48 2.35,3.01 1.07,2.35 2.47,5.04 4.59,6.59 2.36,1.72 6.2,2.91 9.05,3.43 1.46,0.26 2.31,0.56 2.98,0.99 -0.02,2.75 -0.04,5.56 0.02,8.21 0.06,2.64 1.13,10.58 0.47,12.52 -0.57,1.69 -0.49,1.69 -0.49,3.68 0,4.67 0.02,9.24 0.08,13.91 0.02,1.33 0.02,2.69 0.03,4.05 0.89,0.16 1.77,0.36 2.64,0.61 -0.02,-2.93 -0.06,-5.87 -0.12,-8.83 -0.06,-3.14 -0.01,-6.42 -0,-9.57 0.01,-2.8 0.47,-2.47 0.66,-4.42 0.27,-2.77 -0.53,-8.44 -0.63,-11.5 -0.05,-1.49 -0.07,-3.03 -0.06,-4.52 0.01,-0.91 0.19,-1.9 0.16,-2.8 -0,-0.09 0.02,-0.08 0.13,-0.17 0.64,-0.46 0.68,0.56 0.72,0.97 0.09,0.95 0.04,1.56 0.78,2.26 7.3,6.93 17.11,12.31 26.32,16.27 1.09,0.46 2.2,0.51 3.36,0.65 0.55,0.06 0.73,0.07 1.28,0.01 0.56,-0.06 1.06,0.02 0.95,0.7 -0.07,0.44 -0.05,0.65 0.33,0.95 0.35,0.28 1.5,0.65 1.97,0.82 7.06,2.57 14.41,4.69 21.76,6.25 0.54,0.11 1.07,0.17 1.61,0.29 0.28,0.06 0.43,0.06 0.68,0.19 1,0.54 1.59,0.77 2.7,1.02 0.24,0.06 1.43,0.28 1.09,0.73 -0.3,0.4 -2.48,0.09 -3.02,0.09 -0.43,0 -1.18,0 -1.13,0.62 0.03,0.37 0.13,0.87 0.18,1.26 0.89,6.34 1.35,12.83 1.24,19.24 -0.01,0.54 0.24,0.72 0.66,1.02 0.63,0.45 1.7,0.95 2.45,1.13 0.25,0.06 1.79,0.32 1.4,0.82 -0.3,0.39 -2.45,0.03 -2.95,-0.01 -0.36,-0.03 -1.37,-0.1 -1.59,0.25 -0.11,0.17 -0.1,0.9 -0.11,1.14 -0.08,1.58 -0.2,3.17 -0.35,4.75 -0.04,0.34 0.09,0.48 0.35,0.68 0.57,0.44 1.92,0.88 2.62,1.06 0.31,0.08 1.28,0.26 1.24,0.69 -0.04,0.5 -1.5,0.37 -1.84,0.35 -0.63,-0.03 -2.39,-0.23 -2.7,0.45 -0.07,0.15 -0.3,2.06 -0.34,2.4 -0.45,3.2 -1.03,6.37 -1.72,9.53l-0.02 0.08c-0.24,0.87 -0.53,1.58 -1.05,2.33 -0.29,0.42 -0.19,0.7 -0.02,1.17 0.21,0.58 0.5,1.09 0.72,1.68 0.19,0.49 0.31,0.95 0.49,1.44 0.27,0.72 0.27,1.28 0.47,1.99 0.05,0.18 0.37,1.16 -0.1,1.04 -0.33,-0.09 -0.74,-1.32 -0.82,-1.67 -0.17,-0.7 -0.44,-1.09 -0.74,-1.72 -0.46,-0.97 -1.57,-2.22 -2.76,-2 -0.49,0.09 -0.8,0.17 -1.31,0.21 -2,0.13 -4.07,-0.41 -5.94,-1.05 -0.39,-0.13 -0.59,-0.1 -0.71,0.35 -0.11,0.42 0.07,1.82 -0.57,1.74 -0.52,-0.06 -1.12,-1.77 -1.33,-2.22 -0.22,-0.48 -0.54,-1.09 -1.03,-1.33 -0.57,-0.29 -1.15,-0.54 -1.73,-0.85 -2.07,-1.07 -4.15,-2.38 -5.89,-3.96 -1.66,-1.63 -0.88,-3.46 -0.06,-5.28 0.83,-1.83 1.51,-2.8 1.88,-4.89 0.49,-2.71 -0.17,-4.87 -0.14,-7.53 0.01,-0.76 -0.73,-0.47 -0.84,0.87 -0.17,2.24 0.35,3.93 -0.37,6.3 -0.52,1.71 -1.64,3.22 -2.88,4.48 -0.68,0.69 -1.05,0.82 -1.43,1.81 -0.14,0.37 -0.51,1.73 -1.11,1.44 -0.43,-0.2 -0.37,-1.35 -0.37,-1.76 -0,-0.91 0.09,-1.67 -0.36,-2.5 -1.05,-1.94 -1.85,-3.73 -2.56,-5.82l-0.07 -0.2c-0.59,-1.74 -2.63,-9.48 -5.5,-7.99 -2.01,1.04 -0.41,7.04 -0.02,8.8 0.12,0.52 0.48,2.22 0.7,2.6 0.33,0.56 1.4,0.81 1.62,1.26 0.22,0.45 -1.05,0.34 -1.29,0.35 -0.7,0.02 -1.26,0.07 -1.94,0.24 -2.18,0.54 -4.43,-0.12 -5.87,-1.87 -1.42,-1.75 -1.89,-3.39 -2.69,-5.42 -0.18,-0.46 -0.93,-2.44 -1.69,-1.86 -0.48,0.36 0.16,2.03 0.31,2.55 0.64,2.28 1.24,4.32 2.55,6.34 1.89,2.9 4.8,3.84 8.04,4.43 2.07,0.38 2.69,0.05 3.89,1.93 1.53,2.52 1.22,2.45 1.17,5.2 -0.09,4.3 -0.61,9.11 -0.4,13.42 0.16,2.46 0.65,4.4 0.54,6.89 -0.17,3.95 0.02,5.01 0.85,8.7 0.56,2.46 0.86,3.49 0.43,6.14 -0.41,2.5 -0.44,3.6 -0.39,6.13l0 0.3c0,2.89 -0.94,2.67 -0.81,5.32 0.08,1.69 0.23,2.8 0.28,4.09 -2.2,0.12 -4.22,-0.63 -6.6,-0.78 -1.43,-0.09 -2.97,-0.04 -4.42,-0.06 -1.72,-0.02 -3.07,-0.2 -4.8,0.11 -3.08,0.62 -2.07,0.65 -5.12,-0.24 -1.62,-0.47 -3.65,-0.82 -5.31,-1.07 -2.22,-0.35 -4.04,-0.1 -6.2,0.48 -3.1,0.82 -4.94,0.72 -8.04,-0.11 -2.6,-0.69 -4.93,-0.65 -7.55,-0.06 -1.37,0.31 -3.63,0.61 -5,0.39 -0.54,-0.09 -2.49,-0.51 -2.85,-0.24 -0.44,0.31 0.84,0.44 0.92,0.45 1.57,0.24 2.28,0.51 3.94,0.41 1.24,-0.07 2.29,-0.23 3.5,-0.46 2.44,-0.48 4.7,-0.33 7.08,0.41 2.86,0.89 4.83,1.09 7.78,0.61 2.26,-0.37 3.41,-0.5 5.72,-0.01 0.44,0.09 5.07,1.09 3.74,2.15 -1.09,0.86 -3.56,0.98 -4.89,1.06 -1.59,0.09 -3.24,0.19 -4.82,0.04 -1.92,-0.2 -3.74,-0.57 -5.63,-0.87 -1.4,-0.22 -3.16,-0.25 -4.58,-0.24 -0.46,0 -0.61,0.31 0.09,0.38 1.87,0.19 3.47,0.17 5.36,0.52 1.74,0.33 3.47,0.64 5.23,0.84 1.27,0.14 3.13,0.05 4.43,0 2.32,-0.09 5.08,-0.28 6.96,-1.95 0.5,-0.44 1.04,-0.51 1.66,-0.59 0.71,-0.09 1.18,-0.16 1.89,-0.33 0.72,-0.17 1.38,-0.29 2.12,-0.36 1.48,-0.09 2.94,0.2 4.39,0.48 1.19,0.22 5.77,1.15 5.79,2.82 0.01,0.5 -0.8,1.06 -1.16,1.39 -0.74,0.67 -1.46,1.37 -2.17,2.07 -1.11,1.1 -3.51,3.06 -4.93,3.46 -1.55,0.44 -2.84,0.75 -4.42,1.02 -1.51,0.27 -2.94,0.53 -4.43,0.94 -1.18,0.33 -2.39,0.68 -3.57,0.98 -2.53,0.65 -4.18,-0.2 -6.54,-0.92 -1.43,-0.44 -3.83,-0.65 -5.26,-0.31 -2.6,0.59 -4.49,1.29 -6.92,2.43 -0.29,0.13 -1.64,0.71 -1.74,0.95 -0.18,0.46 0.52,0.35 0.72,0.29 0.69,-0.2 1.68,-0.7 2.39,-0.98 1.73,-0.69 3.11,-1.22 4.93,-1.62 1.54,-0.33 2.08,-0.34 3.63,-0.18 1.78,0.19 2.61,0.64 4.27,1.2 4.12,1.4 5.37,0.28 9.36,-0.59 0.84,-0.17 3.83,-0.8 4.57,-0.65 0.74,0.15 0.72,0.7 0.57,1.41 -0.3,1.43 -1.37,4.42 -2.21,5.56 -1.14,1.53 -2.58,2.31 -4.28,2.83 -2.5,0.77 -4.67,1.72 -6.54,3.79 -0.63,0.7 -1.24,1.49 -1.88,2.21 -0.22,0.25 -1.2,1.26 -1.18,1.59 0.03,0.52 0.72,-0.03 0.84,-0.14 1.23,-1.11 2.23,-2.58 3.52,-3.72 1.66,-1.47 3.77,-2.13 5.8,-2.71 1.92,-0.54 3.43,-1.38 4.79,-3 1.24,-1.48 2.07,-4.11 3.14,-5.91 1.22,-2.04 2.03,-2.8 3.89,-4.15 0.21,-0.15 0.43,-0.3 0.65,-0.45 0.79,-0.54 1.38,-0.99 2.11,-1.63 4.14,-3.6 7.93,-6.09 13.38,-6 1.06,0.03 2.46,0.25 3.45,0.59 0.55,0.19 0.91,0.17 1.47,0.04 0.81,-0.19 1.87,-0.59 2.57,-1.05 0.52,-0.35 0.87,-0.7 1.35,-1.08 0.18,-0.15 0.68,-0.56 0.91,-0.33 0.26,0.26 -0.55,1.03 -0.71,1.22 -0.58,0.63 -1.1,1.15 -1.8,1.67 -1.05,0.77 -1.7,1.25 -2.49,2.32 -1.29,1.74 -2.59,2.91 -4.32,4.2 -0.76,0.57 -1.54,1.1 -2.33,1.63l-0.53 0.35c-2.88,1.92 -5.39,4.39 -7.92,6.81 -1.31,1.27 -2.09,1.17 -3.58,1.93 -1.96,1 -4.56,3.31 -6.04,5.06 -0.57,0.69 -1.26,1.54 -1.86,2.17 -1.26,1.32 -2.81,2.09 -4.26,3.12 -0.97,0.7 -1.88,1.34 -2.87,2 -0.37,0.25 -2.24,1.6 -2.37,1.9 -0.16,0.36 0.3,0.29 0.51,0.19 0.58,-0.29 1.52,-1.07 2.16,-1.48 0.81,-0.52 1.56,-1 2.35,-1.54 0.92,-0.63 1.76,-1.13 2.7,-1.69 1.37,-0.82 2.15,-1.53 3.26,-2.7 1.27,-1.33 2.61,-2.69 4.3,-3.33 1.44,-0.56 0.82,0.51 0.42,1.3 -0.53,1.04 -1.04,1.88 -1.64,2.86 -1.09,1.78 -1.3,3.18 -1.45,5.27 -0.19,2.63 0.56,3.83 -0.49,6.56 -0.15,0.4 -1.2,2.74 -0.48,2.88 0.33,0.06 0.67,-0.94 0.8,-1.24 1.28,-2.88 1.43,-2.83 1.48,-6.07 0.04,-2.09 0.13,-4.5 1.31,-6.24 0.58,-0.86 1.18,-1.57 1.75,-2.47 0.48,-0.76 0.95,-1.58 1.45,-2.33 0.31,-0.45 0.55,-0.76 0.83,-1.24 0.65,-1.09 1.78,-1.73 2.72,-2.55 1.36,-1.17 2.79,-2.24 4.22,-3.3 1.86,-1.37 3.68,-2.27 5.75,-3.18 0.54,-0.24 0.98,-0.08 1.19,0.54 0.47,1.43 -1.65,4.32 -2.55,5.26 -0.68,0.71 -1.34,1.3 -2.02,2.04 -1.16,1.26 -2.03,2.35 -2.86,3.91 -0.48,0.91 0.04,1.18 0.7,0.43 0.69,-0.8 1.17,-1.63 1.93,-2.44 0.77,-0.83 1.52,-1.5 2.39,-2.2 1.71,-1.36 3.47,-3.3 4.66,-5.21 0.86,-1.38 0.81,-1.98 1.19,-3.5 0.35,-1.43 0.75,-1.5 1.93,-2.13 0.66,-0.35 2.1,-1.14 2.83,-0.94 1.13,0.52 0.2,2.61 -0.15,3.43 -0.52,1.18 -1.22,2.43 -1.83,3.54 -0.55,1.01 -1.09,1.58 -1.72,2.48 -1.67,2.35 -3.39,4.17 -5.37,6.19 -2.73,2.8 -6.87,8.19 -8.5,11.79 -1.06,2.31 -1.89,4.06 -2.17,6.69 -0.13,1.24 -0.4,1.99 -0.7,3.16 -0.16,0.6 0.49,1.19 1,-0.18 0.4,-1.07 0.56,-1.87 0.73,-3 0.33,-2.19 1.27,-3.87 2.22,-5.8 0.41,-0.83 0.8,-1.62 1.31,-2.39 1.95,-2.95 4.82,-6.46 7.37,-8.81 1.54,-1.41 2.97,-2.74 4.46,-4.22 0.68,-0.69 1.13,-0.28 1.5,0.49 0.74,1.57 0.72,3.19 0.01,4.76 -0.84,1.85 -2.04,3.19 -3.06,4.84 -1.24,2 -1.39,4.31 -1.81,6.61 -0.04,0.19 -0.31,1.45 0.22,1.17 0.48,-0.26 0.98,-3.72 1.18,-4.47 0.66,-2.47 1.57,-3.26 3,-5.14 1.8,-2.37 2.87,-3.95 2.89,-7.14 0.01,-2.39 -0.37,-5.02 1.19,-6.97 1.13,-1.41 2.31,-2.82 3.46,-4.22 1.24,-1.49 2.9,-3.29 4.63,-4.17 0.93,-0.47 0.97,-0.54 1.65,-1.3 0.34,-0.38 0.92,-1.29 1.28,-1.5 0.35,-0.2 0.47,0.12 0.43,0.44 -0.09,0.7 -0.63,1.64 -0.78,2.43 -0.17,0.93 0.02,1.11 0.09,2 0.04,0.5 0.04,1 0.05,1.5 0.02,1.53 0.06,3.49 -0.02,4.99 -0.18,2.74 -1.3,5.23 -2.61,7.53 -0.48,0.85 -1.26,1.91 -1.84,2.73 -1.07,1.51 -2.22,2.97 -3.3,4.48 -2.02,2.8 -5.33,7.3 -6.06,10.74 -0.3,1.44 -0.48,2.84 -0.71,4.28 -0.31,1.93 -1.35,2.72 -2.17,4.37 -0.34,0.69 -0.67,1.39 -0.94,2.1 -0.2,0.5 -0.53,-0.22 -0.43,0.02 0.22,0.58 0.82,0.25 1.12,-0.11 0.49,-0.57 1.01,-1.74 1.51,-2.45 1.7,-2.47 1.5,-2.2 2.09,-5.17 0.48,-2.45 0.76,-3.9 2.02,-6.1 1.46,-2.5 3.52,-5.23 5.32,-7.46 0.38,-0.47 2.72,-3.38 2.96,-3.55 0.6,-0.43 1.01,0.56 1.03,1.15 0.07,1.95 -1.93,4.74 -2.78,6.41 -1.02,1.97 -1.76,3.05 -2.2,5.39 -0.26,1.35 -0.43,3.42 -0.24,4.79 0.2,1.5 0.58,2.77 0.71,4.34 0.17,2.13 0.16,3.15 -0.16,5.24 -0.04,0.25 -0.34,1.85 0.04,1.86 0.28,0.01 0.4,-1.22 0.44,-1.47 0.35,-1.95 0.44,-2.69 0.37,-4.67 -0.06,-1.71 -0.24,-2.75 -0.51,-4.39 -0.28,-1.68 -0.15,-3.17 0.15,-4.84 0.3,-1.65 0.91,-2.95 1.78,-4.31 0.63,-0.98 1.15,-1.78 1.86,-2.71 1.56,-2.04 3.11,-4.2 3.13,-7 0,-1.11 -0.07,-2.24 -0.05,-3.33 0.02,-1.4 0.54,-2.44 1.11,-3.66 0.38,-0.81 0.7,-1.63 1.01,-2.48 0.2,-0.56 1.17,-3.57 1.71,-3.66 0.83,-0.13 2.2,3.12 2.41,3.99 0.58,2.66 -0.44,5.58 -1.19,8.09 -0.59,1.9 -1.36,3.49 -1.81,5.46l-0.04 0.15c-1.02,4.77 -0.74,7.56 -0.72,12.28 0,0.69 -0.05,5.3 0.22,5.7 0.35,0.42 0.43,-0.18 0.48,-0.51 0.22,-1.28 0.21,-3.76 0.22,-5.11 0.04,-3.29 -0.1,-8.93 1.01,-11.89 0.6,-1.6 1,0.56 1.08,1.15 0.26,1.85 0.2,3.68 0.54,5.5 0.53,2.82 1.35,5.12 0.56,8.06 -0.37,1.39 -1.35,3.15 -1.96,4.52 -0.84,1.88 -1.29,2.8 -1.61,4.91 -0.07,0.48 -0.52,2.57 -0.48,2.87 0.07,0.46 0.4,0.23 0.55,-0.13 0.5,-1.22 0.6,-2.85 0.98,-4.11 0.59,-1.95 2.03,-4.4 2.98,-6.22 1.67,-3.19 1.3,-5.92 0.76,-9.33 -0.24,-1.54 -0.26,-2.44 -0.27,-3.97 -0.02,-2.31 0.02,-4.65 -0.36,-6.93 -0.29,-1.72 -0.28,-2.62 0.33,-4.25 0.93,-2.49 1.58,-7.4 0.43,-11.16 -0.04,-0.13 -0.74,-5.77 0.32,-4.86 2.37,2.04 1.12,4.85 0.89,8.23 -0.17,2.73 0.57,5.3 1.52,7.78 0.59,1.64 0.62,2.54 0.33,4.25 -0.38,2.28 -0.35,4.62 -0.36,6.93 -0.01,1.53 -0.02,2.44 -0.26,3.97 -0.54,3.41 -0.91,6.15 0.75,9.33 0.96,1.82 2.4,4.27 2.99,6.22 0.38,1.26 0.48,2.89 0.98,4.11 0.15,0.36 0.48,0.59 0.55,0.13 0.04,-0.3 -0.4,-2.4 -0.48,-2.87 -0.32,-2.11 -0.76,-3.03 -1.61,-4.91 -0.61,-1.37 -1.58,-3.13 -1.96,-4.52 -0.79,-2.93 0.03,-5.24 0.56,-8.06 0.34,-1.82 0.28,-3.65 0.54,-5.5 0.08,-0.58 0.47,-2.75 1.08,-1.15 1.11,2.95 0.97,8.59 1.01,11.89 0.02,1.35 0,3.83 0.22,5.11 0.06,0.33 0.13,0.93 0.48,0.51 0.28,-0.4 0.22,-5.01 0.22,-5.7 0.02,-4.72 0.31,-7.51 -0.72,-12.28l-0.04 -0.15c-0.44,-1.96 -1.22,-3.56 -1.8,-5.46 -0.76,-2.51 -1.77,-5.43 -1.2,-8.09 0.2,-0.87 1.57,-4.12 2.41,-3.99 0.55,0.09 1.52,3.1 1.71,3.66 0.31,0.85 0.63,1.67 1.01,2.48 0.56,1.22 1.09,2.26 1.11,3.66 0.01,1.09 -0.06,2.22 -0.05,3.33 0.01,2.8 1.56,4.96 3.13,7 0.71,0.93 1.22,1.72 1.86,2.71 0.87,1.37 1.48,2.67 1.78,4.31 0.31,1.67 0.44,3.16 0.15,4.84 -0.28,1.65 -0.45,2.69 -0.51,4.39 -0.07,1.98 0.02,2.72 0.36,4.67 0.04,0.25 0.17,1.48 0.44,1.47 0.39,-0 0.09,-1.61 0.05,-1.86 -0.32,-2.09 -0.33,-3.11 -0.16,-5.24 0.13,-1.57 0.51,-2.84 0.71,-4.34 0.19,-1.37 0.01,-3.44 -0.24,-4.79 -0.44,-2.34 -1.19,-3.43 -2.2,-5.39 -0.86,-1.67 -2.85,-4.46 -2.78,-6.41 0.02,-0.59 0.43,-1.58 1.03,-1.15 0.24,0.17 2.58,3.07 2.96,3.55 1.8,2.23 3.86,4.96 5.32,7.46 1.26,2.2 1.53,3.65 2.01,6.1 0.59,2.96 0.39,2.7 2.09,5.17 0.49,0.71 1.02,1.87 1.51,2.45 0.3,0.36 0.9,0.69 1.12,0.11 0.09,-0.24 -0.24,0.47 -0.43,-0.02 -0.28,-0.72 -0.61,-1.41 -0.94,-2.1 -0.82,-1.65 -1.86,-2.44 -2.17,-4.37 -0.23,-1.44 -0.41,-2.84 -0.71,-4.28 -0.73,-3.44 -4.05,-7.95 -6.06,-10.74 -1.09,-1.5 -2.23,-2.96 -3.3,-4.48 -0.58,-0.81 -1.35,-1.87 -1.84,-2.73 -1.3,-2.3 -2.43,-4.79 -2.61,-7.53 -0.07,-1.5 -0.04,-3.46 -0.02,-4.99 0.01,-0.8 0.02,-1.47 0.14,-2.27 0.11,-0.72 -0.43,-1.41 -0.75,-2.02 -0.23,-0.43 -0.98,-1.96 -0.9,-2.37 0.09,-0.45 0.52,-0.24 0.74,-0.01 0.53,0.53 0.8,1.23 1.44,1.77 1.06,0.9 2.22,1.3 3.32,2.13 1.22,0.93 2.37,2.18 3.35,3.36 1.15,1.4 2.33,2.81 3.46,4.22 1.56,1.95 1.18,4.58 1.19,6.97 0.02,3.19 1.09,4.77 2.89,7.14 1.43,1.88 2.35,2.67 3,5.14 0.2,0.74 0.7,4.21 1.18,4.47 0.53,0.29 0.25,-0.97 0.22,-1.17 -0.43,-2.3 -0.58,-4.61 -1.81,-6.61 -1.02,-1.65 -2.22,-2.99 -3.06,-4.84 -0.71,-1.57 -0.73,-3.2 0.01,-4.76 0.37,-0.78 0.81,-1.18 1.5,-0.49 1.48,1.49 2.92,2.81 4.45,4.22 2.55,2.35 5.42,5.86 7.37,8.81 0.5,0.77 0.9,1.56 1.31,2.39 0.94,1.93 1.89,3.6 2.21,5.8 0.17,1.13 0.33,1.93 0.73,3 0.52,1.37 1.16,0.78 1.01,0.18 -0.3,-1.17 -0.57,-1.92 -0.7,-3.16 -0.28,-2.63 -1.11,-4.37 -2.17,-6.69 -1.63,-3.6 -5.76,-8.99 -8.5,-11.79 -1.98,-2.02 -3.7,-3.84 -5.37,-6.19 -0.64,-0.9 -1.17,-1.47 -1.72,-2.48 -0.61,-1.12 -1.32,-2.37 -1.83,-3.54 -0.36,-0.82 -1.28,-2.91 -0.16,-3.43 0.73,-0.2 2.17,0.59 2.83,0.94 1.17,0.63 1.57,0.7 1.93,2.13 0.38,1.52 0.33,2.11 1.19,3.5 1.19,1.91 2.95,3.85 4.66,5.21 0.87,0.7 1.61,1.36 2.39,2.2 0.76,0.82 1.24,1.65 1.93,2.44 0.65,0.75 1.18,0.48 0.7,-0.43 -0.83,-1.55 -1.7,-2.65 -2.86,-3.91 -0.68,-0.74 -1.35,-1.33 -2.02,-2.04 -0.9,-0.94 -3.02,-3.83 -2.55,-5.26 0.2,-0.62 0.64,-0.78 1.19,-0.54 2.07,0.91 3.89,1.81 5.75,3.18 1.43,1.06 2.86,2.13 4.22,3.3 0.95,0.81 2.07,1.46 2.72,2.55 0.29,0.48 0.52,0.8 0.83,1.24 0.5,0.74 0.97,1.56 1.45,2.33 0.57,0.91 1.17,1.61 1.76,2.47 1.18,1.74 1.28,4.15 1.31,6.24 0.05,3.24 0.2,3.19 1.49,6.07 0.13,0.3 0.47,1.3 0.8,1.24 0.72,-0.14 -0.32,-2.48 -0.48,-2.88 -1.05,-2.73 -0.3,-3.93 -0.48,-6.56 -0.15,-2.09 -0.37,-3.49 -1.46,-5.27 -0.6,-0.98 -1.11,-1.82 -1.64,-2.86 -0.41,-0.8 -1.03,-1.86 0.41,-1.3 1.69,0.65 3.04,2 4.3,3.33 1.1,1.17 1.89,1.88 3.25,2.7 0.94,0.57 1.79,1.07 2.7,1.69 0.8,0.54 1.55,1.03 2.35,1.54 0.63,0.41 1.57,1.19 2.15,1.48 0.22,0.11 0.67,0.18 0.51,-0.19 -0.13,-0.3 -2,-1.65 -2.37,-1.9 -0.99,-0.66 -1.91,-1.31 -2.88,-2 -1.44,-1.03 -2.99,-1.8 -4.26,-3.12 -0.6,-0.63 -1.28,-1.48 -1.85,-2.17 -1.48,-1.74 -4.08,-4.05 -6.04,-5.06 -1.49,-0.76 -2.27,-0.66 -3.58,-1.93 -2.52,-2.43 -5.04,-4.9 -7.92,-6.81l-0.54 -0.35c-2.46,-1.64 -5.04,-3.48 -6.72,-5.95 -0.5,-0.74 -0.93,-1.35 -1.33,-2.15 -0.48,-0.96 -0.79,-1.57 -0.98,-2.64 -0.15,-0.85 0.38,-0.93 0.81,-0.29 0.42,0.61 0.46,1 1.05,1.6 0.59,0.61 1.17,1 2.04,0.75 1.04,-0.3 2.14,-0.48 3.22,-0.52 5.46,-0.1 9.24,2.39 13.39,6 0.73,0.64 1.32,1.09 2.11,1.63 0.22,0.15 0.43,0.3 0.65,0.45 1.86,1.35 2.68,2.11 3.89,4.15 1.06,1.8 1.9,4.43 3.14,5.91 1.35,1.62 2.87,2.46 4.78,3 2.03,0.57 4.14,1.24 5.8,2.71 1.29,1.14 2.29,2.61 3.52,3.72 0.12,0.11 0.81,0.67 0.84,0.14 0.02,-0.32 -0.96,-1.33 -1.18,-1.59 -0.63,-0.72 -1.24,-1.51 -1.87,-2.21 -1.87,-2.07 -4.04,-3.02 -6.54,-3.79 -1.7,-0.52 -3.14,-1.3 -4.28,-2.83 -0.85,-1.13 -1.91,-4.12 -2.22,-5.56 -0.15,-0.7 -0.16,-1.26 0.57,-1.41 0.74,-0.15 3.73,0.48 4.57,0.65 3.99,0.87 5.24,1.98 9.36,0.59 1.66,-0.56 2.48,-1.02 4.27,-1.2 1.54,-0.16 2.09,-0.16 3.62,0.18 1.83,0.4 3.2,0.93 4.94,1.62 0.71,0.28 1.7,0.78 2.39,0.98 0.2,0.06 0.91,0.17 0.73,-0.29 -0.1,-0.24 -1.45,-0.82 -1.74,-0.95 -2.43,-1.15 -4.32,-1.84 -6.92,-2.43 -1.44,-0.33 -3.83,-0.12 -5.27,0.31 -2.36,0.72 -4.01,1.57 -6.54,0.92 -1.18,-0.3 -2.39,-0.65 -3.57,-0.98 -1.49,-0.41 -2.92,-0.67 -4.43,-0.94 -1.59,-0.28 -2.87,-0.58 -4.42,-1.02 -1.43,-0.41 -3.82,-2.36 -4.93,-3.46 -0.72,-0.71 -1.44,-1.4 -2.18,-2.07 -0.36,-0.33 -1.16,-0.89 -1.16,-1.39 0.02,-1.67 4.6,-2.6 5.79,-2.82 1.45,-0.28 2.91,-0.57 4.39,-0.48 0.74,0.07 1.4,0.19 2.12,0.36 0.72,0.17 1.18,0.23 1.89,0.33 0.61,0.09 1.16,0.15 1.66,0.59 1.88,1.67 4.64,1.86 6.96,1.95 1.3,0.05 3.16,0.14 4.43,-0 1.76,-0.2 3.49,-0.51 5.24,-0.84 1.89,-0.36 3.49,-0.34 5.36,-0.52 0.71,-0.07 0.56,-0.38 0.09,-0.38 -1.43,-0.01 -3.18,0.02 -4.58,0.24 -1.89,0.3 -3.72,0.68 -5.63,0.87 -1.59,0.16 -3.23,0.05 -4.82,-0.04 -1.33,-0.08 -3.81,-0.2 -4.89,-1.06 -1.32,-1.05 3.31,-2.05 3.75,-2.15 2.31,-0.49 3.45,-0.36 5.72,0.01 2.95,0.48 4.91,0.29 7.78,-0.61 2.39,-0.75 4.64,-0.89 7.09,-0.41 1.21,0.24 2.26,0.39 3.5,0.46 1.66,0.1 2.37,-0.18 3.94,-0.41 0.08,-0.01 1.36,-0.13 0.92,-0.45 -0.36,-0.26 -2.31,0.16 -2.85,0.24 -1.38,0.22 -3.63,-0.08 -5,-0.39 -2.62,-0.59 -4.95,-0.63 -7.55,0.06 -3.1,0.83 -4.94,0.94 -8.04,0.11 -2.16,-0.58 -3.98,-0.83 -6.2,-0.48 -1.67,0.26 -3.69,0.61 -5.31,1.07 -3.04,0.88 -2.04,0.86 -5.12,0.24 -1.73,-0.31 -3.08,-0.14 -4.8,-0.11 -1.45,0.03 -2.98,-0.03 -4.42,0.06 -3.18,0.2 -5.69,1.45 -8.89,0.32 -0.46,-0.17 -0.91,-0.33 -1.35,-0.48 0.07,-0.21 0.13,-0.4 0.17,-0.52 0.5,-1.85 0.07,-5.86 0.05,-8.03 -0.02,-2.25 -0.42,-4.37 -0.43,-6.76 0.02,-1.69 0.04,-3.09 -0,-4.79 -0.06,-2.28 0.18,-2.8 0.48,-4.91 0.26,-2.04 -0.35,-6.48 -0.71,-8.59 -0.28,-1.65 -0.78,-1.76 -0.71,-3.61 0.21,-3.54 0.81,-6.55 0.87,-10.22 0.02,-1.48 -0.09,-3.54 0,-4.91 0.04,-0.49 0.02,-1.11 0.46,-0.94 0.26,0.31 0.36,0.48 0.54,0.88 1.15,2.72 1.26,5.35 1.25,8.37 -0.02,4.67 0.43,9.83 1.18,14.4 0.5,3.02 0.81,4.69 0.94,7.85 0.05,1.28 0,6.21 1.03,6.58 0.17,0.06 -0.03,-3.39 -0.04,-3.69 -0.1,-3.48 -0.1,-5.69 -0.67,-9.21l-0.05 -0.33c-0.72,-4.51 -1.24,-9.15 -1.25,-13.76 -0.01,-4.63 0.23,-6.91 -0.46,-11.65 -0.34,-2.22 -0.62,-4.78 -1.02,-6.91 -0.78,-4.2 -2.56,-6.56 -1.89,-11.03 0.58,-3.54 0.43,-4.44 0.04,-7.95 -0.27,-2.44 2.39,-6.27 2.39,-8.63 1.71,-1.31 3.41,-2.71 4.98,-4.2 0.39,-0.36 0.31,-0.61 0.07,-1.06 -0.24,-0.43 -0.98,-1.58 -0.93,-2.04 0.07,-0.51 0.63,-0.31 0.91,-0.13 0.65,0.41 1.08,0.98 1.93,0.95 0.4,-0.01 0.63,-0.36 0.89,-0.64 2.53,-2.76 4.81,-5.78 7.05,-8.77 2.64,-3.37 6.06,-4.44 10.15,-5.68 0,3.05 0.8,5.86 0.79,8.9 -0.01,3.45 -0.46,5.54 -0.87,8.84 -0.8,6.61 0.85,4.04 0.87,8.36 0.01,2.04 0.04,3.85 0.17,5.88l0.02 0.3c0.16,1.92 0.72,5.15 0.42,6.89 -0.33,1.96 -0.51,2.26 -0.52,4.41 -0.01,3.67 0.22,7.49 0.09,11.17 -0.07,1.98 0.11,3.97 0.02,5.96 -0.29,6.23 -0.98,9.39 0.11,15.81 0.24,1.39 0.54,2.78 0.72,4.19 0.22,1.64 0.44,7.73 1.04,8.67 0.64,0.66 0.72,-1.07 0.72,-1.58 0.04,-2.5 -0.07,-4.86 -0.43,-7.31 -0.84,-5.68 -1.44,-10.69 -0.43,-16.48 0.64,-3.69 0.55,-4.6 0.61,-8.36 0.01,-0.52 -0.41,-14.43 0.47,-13.89 0.98,0.6 1.42,13.37 1.56,15.08 0.41,5.09 2.28,7.44 1.48,12.71 -0.37,2.43 -1.2,6.94 -1.09,9.29 0.06,1.25 0.67,1.56 1.07,0.69 0.37,-0.82 0.96,-5.46 1.19,-6.7 1.08,-5.69 1.34,-6.12 0.07,-11.92 -0.85,-3.94 -0.74,-6.52 -0.72,-10.55 0.02,-3.69 -0.35,-7.55 -1.56,-10.84 -1.68,-4.55 -2.33,-5.49 -2.57,-10.95 -0.09,-2.5 0.29,-4.5 -0.63,-6.71 -0.65,-1.42 -0.25,-3.65 -0.06,-5.22 0.33,-2.7 0.04,-4.31 0.08,-7.15 0.05,-3.43 0.59,-6.99 0.58,-10.47 0.57,-0.19 1.14,-0.38 1.7,-0.58 5.43,-2.02 10.85,-4.95 14.17,-9.85 0.98,-1.45 7.48,-11.75 6.24,-12.98 -0.89,-0.89 -3.39,3.91 -3.8,4.61 -2.09,3.62 -4.79,8.43 -8.13,10.94 -3.33,2.51 -10.28,5.86 -14.51,4.74 -0.75,-0.21 -0.94,-0.44 -1.81,-0.52 -0.58,-0.05 -2.2,-0.09 -2.6,-0.43 -0.37,-0.31 -0.01,-0.64 0.31,-0.78 0.72,-0.33 1.36,-0.28 2.15,-0.74 0.76,-0.45 0.92,-0.7 1.27,-1.49 0.46,-1.04 0.98,-2.03 1.46,-3.06 1.23,-2.74 2.31,-5.46 3.29,-8.3 0.26,-0.74 1.06,-1.35 1.64,-1.86 0.59,-0.51 1.31,-0.89 1.97,-1.32 0.52,-0.35 0.89,-0.61 1.39,-1 1.19,-0.93 2.14,-1.83 3.13,-2.96 0.77,-0.89 1.59,-1.71 2.35,-2.62 0.48,-0.58 1.03,-1.07 1.51,-1.67 0.59,-0.72 1.27,-1.28 1.86,-2 0.25,-0.31 1.44,-1.56 1.42,-1.83 -0.02,-0.22 -0.33,-0.06 -0.24,-0.09 0.22,-0.08 -0.08,0.06 -0.13,0.1 -0.31,0.25 -0.9,0.93 -1.21,1.26 -0.33,0.35 -0.58,0.64 -0.94,0.98 -0.45,0.43 -0.84,0.79 -1.26,1.26 -0.54,0.6 -1.14,1.1 -1.7,1.7 -0.71,0.77 -1.64,1.55 -2.44,2.24 -0.73,0.63 -1.59,1.23 -2.42,1.74 -0.99,0.59 -2.43,1.01 -3.59,0.86 -0.88,-0.11 -1.04,-0.74 -0.32,-1.28 0.9,-0.67 1.1,-0.43 1.39,-1.63 1.44,-5.89 2.33,-11.91 2.6,-17.96 0.05,-1.1 -0.31,-0.94 -0.57,-1.86 -0.17,-0.6 -0.05,-1.23 -0.28,-1.75 -0.17,-0.38 -0.57,-0.65 -0.94,-0.33l-0.05 0.04c-0.17,0.18 -0.69,0.87 -0.72,1.1 -0.14,0.85 -0.83,1.46 -0.93,2.32 -0.07,0.67 -0.09,1.41 -0.15,2.09 -0.08,0.99 -0.2,1.95 -0.3,2.93 -0.11,1.06 0.83,1.68 0.7,2.31 -0.11,0.55 -1.03,0.48 -1.19,1.07 -0.07,0.26 -0.14,0.77 -0.19,1.06 -0.89,4.81 -2.24,9.43 -4.04,13.96 -0.25,0.63 -0.6,1.46 -0.98,0.29 -0.35,-1.06 -0.34,-2.41 -0.55,-3.53 -0.09,-0.5 -0.24,-2.22 -0.48,-2.51 -0.22,-0.27 -0.41,-0.04 -0.47,0.22 -0.14,0.69 0.06,2.2 0.06,2.96 0,0.97 -0.07,2.01 -0.1,3 -0.02,1.04 -0.02,1.86 0.09,2.91 0.06,0.56 0.15,1.46 0,1.97 -0.21,0.72 -1.2,2.5 -1.61,3.24 -2.67,4.85 -5.81,9.35 -9.43,13.55 -0.51,0.59 -0.88,1.42 -1.15,2.15 -0.11,0.31 -0.22,0.69 -0.32,1.02 -0.13,0.41 -0.38,1.59 -0.8,1.72 -0.46,0.14 -0.51,-0.59 -0.51,-0.87 -0,-0.56 0.07,-1.15 0.09,-1.72 0.01,-0.46 0.04,-0.92 0.05,-1.38 0.01,-0.48 0.01,-0.87 -0,-1.36 -0.02,-0.53 -0.02,-1.06 -0.04,-1.59 -0.15,-3.72 -0.35,-6.69 0.1,-10.43 0.24,-1.96 0.4,-3.39 0.86,-5.33 0.44,-1.83 0.88,-3.22 1.47,-5 0.11,-0.34 0.98,-2.65 0.19,-2.65 -0.52,0 -1.24,2.3 -1.42,2.75 -1.11,2.85 -1.93,5.61 -2.48,8.63 -0.53,2.84 -0.93,5.25 -1.17,8.15 -0.37,4.35 -0.91,6.43 -2.55,10.53 -0.65,1.62 -1.64,4.31 -2.77,5.57 -0.92,1.01 -2.07,1.81 -3.16,2.64 -3.33,2.52 -6.67,4.68 -10.28,6.76 -0.59,0.34 -0.78,1.28 -0.9,1.91 -0.08,0.42 -0.23,2.16 -0.95,1.87 -0.73,-0.3 -0.63,-2.37 -1.48,-1.98 -0.48,0.22 -1,0.5 -1.48,0.74 -0.69,0.33 -1.37,0.65 -2.07,0.95 -1.6,0.71 -3.19,1.25 -4.81,1.88 -0.21,0.09 -1.04,0.44 -1.23,0.41 -0.26,-0.04 -0.43,-0.11 -0.72,-0.15 -0.48,-0.05 -2.34,-0.04 -2.63,-0.27 -0.22,-0.17 0.08,-0.41 0.23,-0.49 0.69,-0.39 1.4,-0.32 2.06,-0.96 0.38,-0.37 0.41,-0.63 0.67,-1.08 0.3,-0.54 0.76,-1.17 0.58,-1.81 -0.21,-0.65 -0.65,-1.61 -0.93,-2.28 -0.84,-2.05 -1.61,-4.06 -2.39,-6.13 -0.65,-1.74 -3.87,-1.96 -2.65,-4.61 0.71,-1.54 0.75,-1.16 0.31,-2.84 -0.41,-1.61 -0.77,-3.22 -1.08,-4.85 -0.22,-1.15 -0.3,-1.16 -1.07,-1.96 -0.76,-0.8 -0.72,-0.74 -1.72,-1.28 -0.4,-0.21 -1.52,-0.81 -1.64,-1.24 -0.14,-0.52 0.56,-0.59 0.9,-0.57 0.69,0.02 1.52,0.24 1.94,-0.5 0.04,-0.06 0.07,-0.13 0.11,-0.19 0.66,-1.1 0.44,-1.44 0.33,-2.64 -0.3,-3.31 -0.42,-6.62 -0.42,-9.94 0,-1.3 -0.47,-1.49 -1.25,-2.43 -2.14,-2.58 1.11,-2.93 1.07,-4.92 -0.09,-4.11 -0.27,-7.87 0.15,-12 0.06,-0.57 0.04,-0.7 -0.58,-0.87 -0.52,-0.15 -0.93,-0.14 -1.43,-0.23 -0.69,-0.12 -0.92,-0.55 -0.19,-0.88 1.09,-0.5 2.05,-0.33 2.94,-1.38 0.2,-0.24 0.52,-0.97 0.7,-1.3 0.78,-1.43 1.76,-2.78 2.67,-4.13 2.77,-4.11 4.82,-7.9 6.71,-12.51 2.78,-6.78 4.86,-14.4 6.39,-21.55 -0.72,-0.61 -0.34,-1.93 -0.03,-2.67 0.52,-1.21 1.57,-3.01 2.45,-3.98 0.19,-0.2 1.72,-1.83 1.09,-1.98 -0.3,-0.07 -0.94,0.7 -1.14,0.9 -0.44,0.46 -0.85,0.84 -1.28,1.33 -0.88,1 -1.68,2.11 -2.52,3.16 -0.17,0.21 -0.57,0.83 -0.76,0.93 -0.57,0.3 -1.66,-0.83 -2.08,-1.18 -0.69,-0.57 -1.27,-1.06 -1.93,-1.68 -0.67,-0.63 -1.38,-1.3 -2.07,-1.9 -0.16,-0.14 -0.8,-0.72 -0.96,-0.3 -0.13,0.36 0.99,1.45 1.26,1.73 0.76,0.82 1.47,1.69 2.17,2.56 0.85,1.04 1.58,2.29 1.54,3.67 -0.03,1 -0.44,2.7 -0.67,3.72 -0.83,3.65 -1.93,7.18 -3.43,10.61zm-47.79 176.69c-0.08,-2.34 -0.23,-4.9 0.08,-6.51 0.43,-2.22 0.3,-2.98 0.23,-5.24 -0.13,-4.37 0.6,-6.07 -0.15,-10.7 -0.13,-0.81 -1.33,-7.86 0.07,-6.83 1.26,0.92 2.17,6.31 2.17,8.23 0.02,6.21 -0.18,8.24 1.37,14.33 1.01,3.99 0.14,-0.8 -0.04,-1.75 -0.96,-5.12 -0.92,-7.43 -0.52,-12.69 0.35,-4.61 -0.47,-6.68 -2.22,-10.23 -2.41,-4.89 -2.74,-5.39 -2.04,-11.35 0.25,-2.1 0.62,-3.18 0.73,-5.29 0.06,-1.11 0.09,-2.16 0.11,-3.19 1.22,1.41 2.76,2.94 4.2,4.11 0.34,0.28 0.54,0.07 0.81,-0.19 0.33,-0.33 1,-1.06 1.43,-0.43 0.41,0.59 -0.09,2.27 0.58,2.8 0.39,0.31 0.95,0.67 1.37,0.95 2.28,1.54 4.65,2.94 7.03,4.31 2.82,1.63 8.47,4.51 8.32,8.29 -0.09,0.75 -0.46,1.91 -0.67,2.65 -0.29,0.99 -0.6,1.97 -0.9,2.96 -0.14,0.47 0.11,0.72 0.45,1.03 0.49,0.45 1.27,0.89 1.9,1.09 0.61,0.19 1.07,0.44 1.7,0.59 0.28,0.07 1.72,0.28 1.52,0.73 -0.13,0.28 -1.13,0.13 -1.41,0.1 -0.57,-0.06 -0.93,-0.14 -1.48,-0.26 -0.48,-0.11 -0.99,-0.13 -1.5,-0.23 -0.53,-0.11 -1.97,-0.43 -2.21,0.22 -0.12,0.31 -0.24,0.74 -0.33,1.07 -1.43,4.74 -2.85,9.48 -4.2,14.24 -0.12,0.44 -0.04,0.63 0.37,0.85 0.99,0.54 3.24,0.55 4.42,0.71 0.2,0.03 0.87,0.13 0.7,0.47 -0.16,0.33 -1.46,0.33 -1.81,0.35 -0.81,0.05 -4.12,0.22 -4.54,0.83 -0.09,0.13 -0.28,0.92 -0.34,1.13 -2.17,0.04 -4.34,0.21 -6.51,0.2 -0.48,-0 -2.09,0.57 -2.71,0.74 -2.04,0.55 -3.79,1.1 -5.77,1.83l-0.2 0.07zm53.26 -9.59c-0.03,-0.36 -0.24,-0.51 -0.55,-0.66 -1.25,-0.61 -4.52,-0.64 -6,-0.74 -0.2,-0.02 -1.07,-0.05 -0.9,-0.41 0.13,-0.3 1.55,-0.29 1.86,-0.3 1.04,-0.05 4.59,-0.17 5.23,-0.95 0.18,-0.22 0.11,-0.46 0.09,-0.74 -0.13,-2.14 -0.21,-4.28 -0.28,-6.42 -0.01,-0.45 -0.41,-0.61 -0.79,-0.74 -0.85,-0.29 -2.64,-0.5 -3.56,-0.46 -0.27,0.02 -1.4,0.15 -1.31,-0.33 0.06,-0.31 0.98,-0.49 1.27,-0.56 0.65,-0.15 1.42,-0.17 2.1,-0.26 0.52,-0.07 2.07,-0.28 2.21,-0.88 0.03,-0.14 -0.01,-2.62 -0.01,-2.99 -0.01,-3.56 0.03,-7.12 0.07,-10.69 0.01,-0.53 -0.46,-0.64 -0.9,-0.72 -1.01,-0.2 -2.04,-0.21 -3.04,-0.35 -0.24,-0.03 -0.94,-0.12 -0.83,-0.5 0.12,-0.43 1.52,-0.48 1.93,-0.53 0.87,-0.11 2.09,-0.28 2.74,-0.93 0.22,-0.22 0.16,-0.58 0.16,-0.89 0.05,-3.91 0.08,-7.83 0.02,-11.75l0 -0.08c-0,-0.47 -0.03,-0.65 -0.5,-0.87 -1.1,-0.5 -3.7,-0.43 -4.18,-0.73 -0.3,-0.19 -0.1,-0.42 0.16,-0.51 0.48,-0.17 1.69,-0.22 2.28,-0.31 0.67,-0.1 2.11,-0.3 2.16,-1.17 0.02,-0.24 -0.02,-0.67 -0.02,-0.92 -0.18,-5.54 -0.59,-10.9 -1.3,-16.39 -0.06,-0.46 -0.31,-0.57 -0.7,-0.79 -0.93,-0.5 -1.68,-0.43 -2.61,-0.7 -0.29,-0.08 -0.85,-0.34 -0.51,-0.72 0.46,-0.5 2.89,-0.41 3.7,-0.56 0.81,-0.17 1.61,-0.41 2.36,-0.75 0.44,-0.2 0.39,-0.52 0.38,-0.95 -0.02,-0.48 -0.15,-1.99 0.21,-2.3 0.38,-0.32 0.78,0.26 0.94,0.55 0.34,0.61 0.55,1.32 1.4,1.28 0.31,-0.02 1.07,-0.44 1.39,-0.6 2.31,-1.16 4.57,-2.44 6.74,-3.86 0.18,-0.12 1.02,-0.79 1.15,-0.93 0.58,-0.63 0.63,-1.83 0.82,-2.65 0.17,-0.71 0.17,-0.78 0.57,-1.4 0.12,-0.19 0.53,-0.94 0.81,-0.57 0.27,0.35 -0.27,1.19 -0.33,1.66 -0.11,0.88 -0.03,1.8 -0.11,2.71 -0.06,0.56 -0.15,0.9 -0.26,1.44 -0.14,0.65 0.09,1.3 0.25,1.93 0.25,1 0.46,1.91 0.55,2.95 0.13,1.58 0.06,2.61 -0.17,4.16 -0.59,3.86 -0.29,5.23 -0.02,9.02 0.18,2.51 -0.33,3.78 -0.33,6.17 0,1.25 0,2.5 0,3.75 0,2.69 0.14,5.73 -0,8.35 -0.19,2.93 -1.19,8.13 -0.61,10.76 0.19,0.8 0.38,1.59 0.58,2.38 0.67,2.7 1.71,6.21 1.05,9.02 -0.38,1.72 -0.44,2.53 -0.36,4.3 0.09,2.12 0.01,4.07 0.12,6.15 0.07,1.11 0.17,2.22 0.23,3.34 0.08,1.65 0.33,3.13 0.42,4.72 0.11,1.92 0.19,3.07 -0.08,4.31 -0.81,-0.25 -1.63,-0.48 -2.5,-0.72 -0.63,-0.17 -2.23,-0.75 -2.71,-0.74 -2.35,0.02 -4.68,-0.19 -7.02,-0.2 -0.99,-0 -1.33,0.21 -2.23,0.41 -1.11,0.24 -1.98,0.41 -3.13,0.42 -1.04,0.01 -2.2,-0.01 -3.24,-0.06 -0.28,-0.01 -1.83,-0.11 -2,-0.33 -0.26,-0.35 0.51,-0.39 0.69,-0.4 0.61,-0.02 1.16,0.02 1.78,-0.02 1.26,-0.08 3.09,-0.17 4.2,-0.77 0.41,-0.22 0.98,-0.56 0.99,-1.08 0,-0.26 -0.1,-0.95 -0.14,-1.26 -0.13,-1.22 -0.25,-2.44 -0.35,-3.66zm-87.27 -56.05c-0.54,1.39 -1.06,2.87 -1.35,4.87 -0.19,1.37 -0.28,2.66 -0.3,3.9 0.65,-0.38 1.33,-0.74 2.02,-1.06 0.33,-2.47 0.81,-4.45 1.51,-5.09 0.68,-0.63 0.57,1.87 0.35,4.3 0.74,-0.28 1.49,-0.54 2.26,-0.76 0.09,-1.78 0.08,-2.65 -0.05,-4.57 -0.05,-0.7 -0.06,-1.4 -0.04,-2.11 -1.45,0.3 -2.92,0.47 -4.39,0.53zm2.04 32.43c0.02,0.77 0.01,1.5 -0.02,2.28 -0.11,2.6 -0.5,5.24 -0.56,7.74 -0.07,2.42 0.9,2.88 1.33,0.41 -0.02,-0.01 -0.26,1.34 -0.35,1.02 -0,-0.02 0.4,-3.16 0.42,-3.33 0.45,-3.81 0.67,-5.96 0.61,-8.92 -0.46,0.28 -0.94,0.55 -1.42,0.8z"></path></g></g>
</svg>
</g></svg>