<?xml version="1.0" encoding="UTF-8" standalone="no"?>
<svg
   width="668.91016"
   height="94.804688"
   viewBox="0 0 668.91016 94.804687"
   version="1.1"
   id="svg28"
   sodipodi:docname="e67cf2c7e1a47be103afc6fb6ac98e38.svg"
   xmlns:inkscape="http://www.inkscape.org/namespaces/inkscape"
   xmlns:sodipodi="http://sodipodi.sourceforge.net/DTD/sodipodi-0.dtd"
   xmlns="http://www.w3.org/2000/svg"
   xmlns:svg="http://www.w3.org/2000/svg">
  <defs
     id="defs32" />
  <sodipodi:namedview
     id="namedview30"
     pagecolor="#ffffff"
     bordercolor="#666666"
     borderopacity="1.0"
     inkscape:pageshadow="2"
     inkscape:pageopacity="0.0"
     inkscape:pagecheckerboard="0" />
  <path
     fill-rule="nonzero"
     fill="#100e0c"
     fill-opacity="1"
     d="m 216.55859,47.648437 c -2.12891,2.019531 -4.87891,3.027344 -8.25391,3.027344 -3.50389,0 -6.29687,-0.976563 -8.37889,-2.925781 -2.08204,-1.953125 -3.125,-4.5625 -3.125,-7.832032 0,-3.074218 1.09375,-5.609374 3.27734,-7.589843 2.17969,-1.984375 4.92187,-2.976563 8.22656,-2.976563 3.34375,0 6.08594,0.992188 8.23047,2.976563 2.15234,1.980469 3.22656,4.515625 3.22656,7.589843 0,3.136719 -1.0664,5.714844 -3.20312,7.730469 m 8.73047,-28.285156 c -1.63672,0.210937 -3.3125,0.324219 -5.03125,0.324219 -0.92578,0 -2.62891,-0.07031 -5.10938,-0.199219 -2.48047,-0.136719 -4.49609,-0.199219 -6.04687,-0.199219 -7.63672,0 -13.74611,1.875 -18.32422,5.628906 -4.57813,3.75 -6.86328,8.714844 -6.86328,14.898438 0,3.898438 1.02343,7.265625 3.07422,10.089844 2.04687,2.828125 5.08592,5.085937 9.125,6.769531 l -2.92969,7.6875 c 2.27734,-1.289063 4.41015,-2.234375 6.39453,-2.828125 1.98437,-0.59375 3.96875,-0.890625 5.94922,-0.890625 4.23437,0 7.71484,1.050781 10.43359,3.148437 2.73438,2.101568 4.09375,4.707028 4.09375,7.812498 0,3.03516 -1.1875,5.50782 -3.5664,7.40625 -2.38282,1.90235 -5.51954,2.85157 -9.41407,2.85157 -3.21484,0 -6.17968,-0.64454 -8.91015,-1.9336 -2.72657,-1.28906 -5.17969,-3.18359 -7.36328,-5.69922 l -8.07813,8.03125 c 2.97266,3.69922 6.58203,6.48047 10.83594,8.34766 4.24219,1.87109 9.0625,2.80859 14.45312,2.80859 7.26953,0 13.35157,-2.00781 18.24219,-6.0039 4.89453,-3.9961 7.33984,-8.90625 7.33984,-14.72266 0,-3.63281 -0.91796,-6.875 -2.75,-9.71875 -1.83593,-2.839844 -4.65625,-5.355469 -8.45703,-7.539062 3.53516,-2.179688 6.13282,-4.539063 7.78516,-7.066407 1.65625,-2.523437 2.48047,-5.378906 2.48047,-8.550781 0,-2.28125 -0.39844,-4.386719 -1.19141,-6.324219 -0.79297,-1.929687 -1.98437,-3.660156 -3.5664,-5.179687 l 7.53125,-0.496094 3.02733,-11.902344 -8.53125,2.484375 c -1.45312,0.425781 -2.99609,0.746094 -4.63281,0.964844"
     id="path2" />
  <path
     fill-rule="nonzero"
     fill="#100e0c"
     fill-opacity="1"
     d="m 109.95313,60.273437 c -1.63282,1.304688 -3.89063,1.957031 -6.76172,1.957031 -2.94532,0 -5.242195,-0.667968 -6.898445,-2.007812 -1.65234,-1.34375 -2.47656,-3.199219 -2.47656,-5.578125 0,-2.316406 0.83203,-4.136719 2.5,-5.453125 1.67188,-1.328125 3.992185,-1.984375 6.972655,-1.984375 2.83985,0 5.07032,0.675781 6.6875,2.03125 1.6211,1.355469 2.4336,3.21875 2.4336,5.597656 0,2.316407 -0.82032,4.128907 -2.45703,5.4375 m -5.28125,-41.285156 c -2.04297,0 -4.28517,0.140625 -6.714845,0.425781 -2.42969,0.277344 -5.06641,0.714844 -7.90625,1.3125 l -2.92969,12.496094 c 2.05078,-1.023438 4.32812,-1.792969 6.84375,-2.308594 2.50781,-0.511718 5.20312,-0.769531 8.082035,-0.769531 3.5039,0 6.10937,0.546875 7.80859,1.636719 1.70312,1.09375 2.55469,2.746094 2.55469,4.957031 v 4.367187 c -1.65235,-1.222656 -3.50391,-2.148437 -5.55469,-2.773437 -2.04688,-0.632813 -4.29688,-0.945313 -6.74218,-0.945313 -5.785165,0 -10.429695,1.609376 -13.937505,4.828126 -3.5,3.230468 -5.25391,7.5 -5.25391,12.824218 0,5.292969 1.76172,9.648438 5.28516,13.066404 3.51953,3.42188 8.02343,5.13282 13.50781,5.13282 2.843745,0 5.390625,-0.4375 7.636715,-1.3125 2.25,-0.87891 4.19532,-2.20704 5.85157,-3.99219 v 5.30469 l 11.40625,-1.14063 V 36.148437 c 0,-5.917969 -1.60547,-10.253906 -4.8086,-13.019531 -3.21094,-2.757812 -8.2539,-4.140625 -15.1289,-4.140625"
     id="path4" />
  <path
     fill-rule="nonzero"
     fill="#100e0c"
     fill-opacity="1"
     d="m 160.85546,19.089844 c -3.01171,0 -5.73437,0.660156 -8.18359,1.984374 -2.44922,1.320313 -4.66406,3.335938 -6.64453,6.046876 V 14.722656 l -11.90235,5.707031 v 57.324219 l 12.89454,-5.65625 V 43.136718 c 0,-4.097656 0.80859,-7.203124 2.42968,-9.320312 1.61719,-2.113281 4,-3.175781 7.14063,-3.175781 2.57812,0 4.39844,0.847656 5.48047,2.53125 1.07031,1.683593 1.60547,4.675781 1.60547,8.972656 v 35.609375 l 12.99609,-5.65625 V 38.277344 c 0,-6.183594 -1.36719,-10.921876 -4.08984,-14.230469 -2.73047,-3.304688 -6.63672,-4.957031 -11.72657,-4.957031"
     id="path6" />
  <path
     fill-rule="nonzero"
     fill="#100e0c"
     fill-opacity="1"
     d="m 21.246094,57.023437 3,-18.445312 7.5,14.800781 C 35.023437,52.664062 38.425781,52.25 41.9375,52.25 c 3.546875,0 6.976563,0.421875 10.277344,1.148437 l 7.484375,-14.820312 2.980468,18.464843 c 9.644532,4.742188 17.210938,12.671878 21.152348,22.312498 l 0.12109,0.03516 L 65.257813,0 42,47.105468 18.644531,0 0,79.390626 0.05078,79.375026 C 3.999999,69.714876 11.574218,61.765655 21.246093,57.023467"
     id="path8" />
  <path
     fill-rule="nonzero"
     fill="#100e0c"
     fill-opacity="1"
     d="m 272.96485,18.789062 c -4.63281,0 -8.45703,0.785156 -11.47656,2.355469 -3.02736,1.574219 -5.42969,4.027344 -7.21875,7.367187 V 14.722656 l -11.89844,5.707031 v 57.324219 l 13.03906,-5.65234 V 48.738281 c 0,-6.015625 1.16797,-10.429687 3.49609,-13.234375 2.33204,-2.8125 6.00781,-4.214844 11.03516,-4.214844 l 4.55859,-12.5 z m 0,0"
     id="path10" />
  <path
     fill-rule="nonzero"
     fill="#100e0c"
     fill-opacity="1"
     d="m 312.33204,56.949218 c -2.90236,2.992188 -6.39063,4.488282 -10.45704,4.488282 -4.16407,0 -7.65625,-1.453125 -10.48438,-4.363282 -2.82812,-2.910156 -4.24608,-6.53125 -4.24608,-10.859374 0,-4.367188 1.41796,-7.976563 4.24608,-10.835938 2.82813,-2.859375 6.32031,-4.289062 10.48438,-4.289062 4.26562,0 7.79687,1.421874 10.60937,4.265624 2.80859,2.839844 4.21484,6.460938 4.21484,10.859376 0,4.164062 -1.45703,7.742187 -4.36718,10.734374 m 9.47656,-29.925781 c -2.67969,-2.542969 -5.73047,-4.484375 -9.14844,-5.824219 -3.42187,-1.339843 -7.01953,-2.011718 -10.78516,-2.011718 -3.77343,0 -7.33984,0.664062 -10.70703,1.980468 -3.375,1.324219 -6.37109,3.242188 -8.98047,5.753907 -2.71093,2.578125 -4.7539,5.507812 -6.14843,8.777343 -1.39453,3.277344 -2.08203,6.773438 -2.08203,10.515626 0,3.632812 0.69921,7.105468 2.10546,10.410156 1.41016,3.308594 3.45313,6.269531 6.125,8.878906 2.64454,2.54297 5.625,4.46875 8.95313,5.77734 3.32031,1.3086 6.89844,1.95704 10.73437,1.95704 3.80079,0 7.42969,-0.66797 10.88282,-2.00782 3.45312,-1.33984 6.46875,-3.25 9.05078,-5.72656 2.64062,-2.542969 4.66015,-5.460938 6.05469,-8.753906 1.38281,-3.292969 2.08593,-6.800782 2.08593,-10.535156 0,-3.742188 -0.70312,-7.234376 -2.08593,-10.488282 -1.39454,-3.257812 -3.41407,-6.160156 -6.05469,-8.703125"
     id="path12" />
  <path
     fill-rule="nonzero"
     fill="#100e0c"
     fill-opacity="1"
     d="m 666.65234,61.710937 c -0.76953,0.01953 -1.70703,0.02734 -2.80078,0.02734 -3.56641,0 -6.02735,-0.714844 -7.39063,-2.132813 -1.35547,-1.425781 -2.03125,-4.136718 -2.03125,-8.136718 v -19.78125 h 11.95313 V 20.429687 H 654.42968 V 0.835937 l -12.9375,11.160157 v 8.433593 h -5.05859 l -3.125,11.257813 h 8.18359 v 19.679687 c 0,7.671875 1.57422,13.269531 4.73438,16.789059 3.15625,3.52344 8.15625,5.28516 15,5.28516 0.58984,0 1.75,-0.0547 3.46875,-0.15234 0.42968,-0.0312 0.76562,-0.0508 0.99218,-0.0508 l 3.22266,-11.601568 c -0.72656,0.03516 -1.48047,0.05859 -2.25781,0.07422"
     id="path14" />
  <path
     fill-rule="nonzero"
     fill="#100e0c"
     fill-opacity="1"
     d="m 553.99609,56.972656 c -2.85547,2.980469 -6.30469,4.464844 -10.33203,4.464844 -4.16797,0 -7.64844,-1.445313 -10.44141,-4.339844 -2.79297,-2.894531 -4.19141,-6.519531 -4.19141,-10.882812 0,-4.398438 1.38282,-8.019532 4.14454,-10.859376 2.75781,-2.847656 6.2539,-4.265624 10.48828,-4.265624 4.32812,0 7.84375,1.402343 10.55859,4.214843 2.71484,2.808594 4.0625,6.441407 4.0625,10.910157 0,4.199218 -1.42969,7.78125 -4.28906,10.757812 m -8.30078,-37.585938 c -3.67188,0 -6.97657,0.648438 -9.91797,1.933594 -2.94141,1.289063 -5.52344,3.222656 -7.73828,5.800782 V 14.722656 l -11.9961,5.707031 v 74.374999 l 12.98829,-5.65234 v -22.65625 c 2.05469,2.21484 4.47266,3.86328 7.26954,4.95703 2.79296,1.09375 5.92187,1.63672 9.39453,1.63672 3.40234,0 6.53905,-0.57813 9.41797,-1.73828 2.875,-1.15235 5.5703,-2.94141 8.08592,-5.35157 2.67188,-2.578121 4.70704,-5.554684 6.09766,-8.929684 1.38672,-3.371094 2.08204,-6.992187 2.08204,-10.855468 0,-7.605469 -2.46484,-13.976563 -7.38672,-19.117188 -4.92578,-5.140625 -11.02344,-7.710938 -18.29687,-7.710938"
     id="path16" />
  <path
     fill-rule="nonzero"
     fill="#100e0c"
     fill-opacity="1"
     d="m 614.36718,56.949218 c -2.91015,2.992188 -6.39453,4.488282 -10.46094,4.488282 -4.16796,0 -7.66015,-1.453125 -10.48437,-4.363282 -2.82422,-2.910156 -4.24219,-6.53125 -4.24219,-10.859374 0,-4.367188 1.41797,-7.976563 4.24219,-10.835938 2.82422,-2.859375 6.31641,-4.289062 10.48437,-4.289062 4.26563,0 7.79688,1.421874 10.60938,4.265624 2.8125,2.839844 4.21484,6.460938 4.21484,10.859376 0,4.164062 -1.45312,7.742187 -4.36328,10.734374 m 9.47266,-29.925781 c -2.67578,-2.542969 -5.72656,-4.484375 -9.15235,-5.824219 -3.42187,-1.339843 -7.01171,-2.011718 -10.78125,-2.011718 -3.76953,0 -7.33984,0.664062 -10.71093,1.980468 -3.36719,1.324219 -6.35938,3.242188 -8.97266,5.753907 -2.70703,2.578125 -4.76172,5.507812 -6.14844,8.777343 -1.38672,3.277344 -2.08593,6.773438 -2.08593,10.515626 0,3.632812 0.70312,7.105468 2.11328,10.410156 1.40234,3.308594 3.4414,6.269531 6.12109,8.878906 2.64063,2.54297 5.625,4.46875 8.94922,5.77734 3.32031,1.3086 6.89844,1.95704 10.73437,1.95704 3.80469,0 7.42969,-0.66797 10.88672,-2.00782 3.44922,-1.33984 6.47266,-3.25 9.04688,-5.72656 2.64062,-2.542969 4.66406,-5.460938 6.04687,-8.753906 1.39453,-3.292969 2.08203,-6.800782 2.08203,-10.535156 0,-3.742188 -0.6875,-7.234376 -2.08203,-10.488282 -1.38281,-3.257812 -3.40625,-6.160156 -6.04687,-8.703125"
     id="path18" />
  <path
     fill-rule="nonzero"
     fill="#100e0c"
     fill-opacity="1"
     d="m 493.33204,31.386718 c -1.32422,-0.53125 -3.14454,-1.1875 -5.45313,-1.984374 -6.54687,-2.28125 -9.82423,-5.039063 -9.82423,-8.277344 0,-2.316406 0.78125,-4.1875 2.33594,-5.605469 1.55078,-1.421875 3.58594,-2.132813 6.09767,-2.132813 2.08203,0 4.08203,0.511719 6,1.535157 1.91796,1.027343 3.85155,2.613281 5.80467,4.761719 l 9.1172,-9.417969 c -2.6797,-3.375 -5.75781,-5.878907 -9.24609,-7.511719 -3.48438,-1.636719 -7.44532,-2.457031 -11.8711,-2.457031 -6.55078,0 -11.98047,2.058593 -16.29297,6.171875 -4.3125,4.117187 -6.47265,9.265625 -6.47265,15.445312 0,4.828125 1.34765,8.785156 4.04687,11.878906 2.69532,3.089844 7.28125,5.878907 13.75782,8.351563 0.46093,0.164063 1.12108,0.414063 1.98046,0.742187 6.94141,2.578126 10.41407,5.605469 10.41407,9.078126 0,2.613281 -0.80078,4.667968 -2.40625,6.171874 -1.59766,1.507813 -3.77735,2.257813 -6.51563,2.257813 -2.28515,0 -4.42578,-0.589844 -6.42187,-1.785156 -1.9961,-1.191407 -4.14063,-3.15625 -6.42969,-5.902344 l -9.60938,9.824219 c 2.84375,3.832036 6.14063,6.675786 9.88672,8.527346 3.75,1.85156 8.04297,2.77734 12.8711,2.77734 6.875,0 12.48437,-2.03515 16.83203,-6.10156 4.34765,-4.062501 6.51952,-9.273439 6.51952,-15.621095 0,-4.957031 -1.26171,-9.167969 -3.78905,-12.617187 -2.52735,-3.453126 -6.3086,-6.160157 -11.33203,-8.109376"
     id="path20" />
  <path
     fill-rule="nonzero"
     fill="#100e0c"
     fill-opacity="1"
     d="m 415.13671,60.003906 c -2.60937,0.953125 -5.07031,1.433594 -7.38672,1.433594 -2.28125,0 -4.38281,-0.363282 -6.29687,-1.089844 -1.91797,-0.726562 -3.65234,-1.820312 -5.20703,-3.277344 l 13.23047,-8.207031 -8.05469,-6.660156 -9.4375,5.792969 c -0.0352,-0.261719 -0.0586,-0.550782 -0.0742,-0.863282 -0.0195,-0.316406 -0.0312,-0.785156 -0.0312,-1.414062 0,-4.5 1.4375,-8.214844 4.28906,-11.15625 2.86328,-2.945313 6.44141,-4.417969 10.74219,-4.417969 1.78125,0 3.39844,0.292969 4.83203,0.871094 1.4336,0.578125 2.66797,1.445312 3.69531,2.601562 l -9.39453,5.761719 3.4336,9.484375 22.8164,-14.15625 c -2.77343,-5.054687 -6.3164,-8.90625 -10.60547,-11.550781 -4.30078,-2.644532 -9.16015,-3.96875 -14.57812,-3.96875 -4,0 -7.625,0.636718 -10.86328,1.90625 -3.23828,1.277344 -6.1836,3.222656 -8.82813,5.828125 -2.74218,2.609375 -4.80078,5.539062 -6.17187,8.777343 -1.3711,3.242188 -2.05469,6.746094 -2.05469,10.515626 0,3.699218 0.69922,7.199218 2.10938,10.488281 1.39843,3.289062 3.4414,6.222656 6.11718,8.800781 2.64453,2.54297 5.62891,4.46875 8.94922,5.77734 3.32813,1.3086 6.90236,1.95704 10.74219,1.95704 3.89453,0 7.66406,-0.57813 11.30078,-1.73438 3.63672,-1.15625 7.22266,-2.89062 10.76172,-5.20703 L 423.96492,55.4375 c -3.27344,2.082031 -6.21094,3.601562 -8.82813,4.566406"
     id="path22" />
  <path
     fill-rule="nonzero"
     fill="#61c331"
     fill-opacity="1"
     d="m 366.9961,29.355468 c -5.30469,2.863282 -9.72267,12.292969 -9.72267,12.292969 -0.55858,1.421875 -1.03125,2.769531 -1.41406,4.042969 -0.37891,1.273438 -0.68358,16.230469 -0.91406,17.519531 -0.33202,-1.820312 -0.69141,-17.097656 -1.08985,-18.488281 -0.39453,-1.386719 -0.80859,-2.542969 -1.24218,-3.46875 0,0 -5.28907,-9.136719 -10.65625,-11.898438 -2.91016,-1.492187 -22.67969,-17.410156 -22.67969,-17.410156 l 35.66797,62.484374 34.66015,-62.484374 c 0,0 -19.75,15.863282 -22.60937,17.410156"
     id="path24" />
  <path
     fill-rule="nonzero"
     fill="#f03c1e"
     fill-opacity="1"
     d="m 41.976563,60.144531 c 16.445312,0 30.949218,8.324215 39.519532,20.992185 -6.24609,-15.72656 -21.570314,-26.863279 -39.519532,-26.863279 -17.953126,0 -33.277344,11.136719 -39.527344,26.863279 8.574218,-12.66797 23.082031,-20.992185 39.527344,-20.992185"
     id="path26" />
</svg>
